/* XPM */
static const char * const audmonkey_xpm[] = {
"48 48 329 2",
"  	c None",
". 	c #0000D2",
"+ 	c #0000E2",
"@ 	c #0000E7",
"# 	c #0000F7",
"$ 	c #0000FF",
"% 	c #0000F8",
"& 	c #0000E4",
"* 	c #0000D9",
"= 	c #0000E0",
"- 	c #0000FA",
"; 	c #0000EA",
"> 	c #0000CE",
", 	c #0000D6",
"' 	c #0000FB",
") 	c #0000EE",
"! 	c #0000DC",
"~ 	c #0000C2",
"{ 	c #0000BA",
"] 	c #0000FC",
"^ 	c #0000EC",
"/ 	c #0000B6",
"( 	c #0000E9",
"_ 	c #0000EF",
": 	c #0000C4",
"< 	c #0000EB",
"[ 	c #0000FE",
"} 	c #0000D8",
"| 	c #0000C9",
"1 	c #0000ED",
"2 	c #0000BF",
"3 	c #0000DA",
"4 	c #0000D0",
"5 	c #0000CC",
"6 	c #0000BE",
"7 	c #0000D5",
"8 	c #0000F1",
"9 	c #0000D1",
"0 	c #953B00",
"a 	c #993D00",
"b 	c #A14000",
"c 	c #963B00",
"d 	c #A03F00",
"e 	c #9C3E00",
"f 	c #9A3D00",
"g 	c #0000E6",
"h 	c #0000D7",
"i 	c #0000E8",
"j 	c #983C00",
"k 	c #9F3F00",
"l 	c #AA4400",
"m 	c #A44200",
"n 	c #0000F5",
"o 	c #0000DB",
"p 	c #A64200",
"q 	c #9D3E00",
"r 	c #0000D4",
"s 	c #0000DE",
"t 	c #0100D6",
"u 	c #A74300",
"v 	c #933A00",
"w 	c #0000FD",
"x 	c #5D22C9",
"y 	c #6F2AAA",
"z 	c #5920BC",
"A 	c #B25322",
"B 	c #D78658",
"C 	c #EA9C6C",
"D 	c #F1A473",
"E 	c #E89A6A",
"F 	c #D38154",
"G 	c #AF4D18",
"H 	c #C46E41",
"I 	c #E49566",
"J 	c #CB774A",
"K 	c #8F3800",
"L 	c #0000C1",
"M 	c #1E06DA",
"N 	c #5F23CB",
"O 	c #7C3FAC",
"P 	c #6626AA",
"Q 	c #A44100",
"R 	c #CE7B4E",
"S 	c #FCB07D",
"T 	c #FFB380",
"U 	c #F9AC7A",
"V 	c #C67043",
"W 	c #AF4E19",
"X 	c #F0A372",
"Y 	c #B75B2C",
"Z 	c #A6562C",
"` 	c #501CCC",
" .	c #9063D3",
"..	c #A975B9",
"+.	c #873485",
"@.	c #D28053",
"#.	c #FFB685",
"$.	c #FFC5A4",
"%.	c #FFC29F",
"&.	c #FEB27F",
"*.	c #C97547",
"=.	c #AF4D17",
"-.	c #FFC09A",
";.	c #FFB88B",
">.	c #F7AA79",
",.	c #B65A2B",
"'.	c #300EE9",
").	c #E19E70",
"!.	c #943A6E",
"~.	c #9265D4",
"{.	c #511DD4",
"].	c #C1693C",
"^.	c #FFBB91",
"/.	c #FFE7DB",
"(.	c #FFFEFD",
"_.	c #FFFFFF",
":.	c #FFFAF7",
"<.	c #FFDBC8",
"[.	c #FFB482",
"}.	c #FFD4BE",
"|.	c #FFF8F4",
"1.	c #FFEBE1",
"2.	c #FFC09B",
"3.	c #EDA06F",
"4.	c #81329F",
"5.	c #963B69",
"6.	c #8E387C",
"7.	c #FFBE96",
"8.	c #FFF7F4",
"9.	c #FAFAFA",
"0.	c #E2E2E2",
"a.	c #E1E1E1",
"b.	c #F9F9F9",
"c.	c #FFECE3",
"d.	c #FFB381",
"e.	c #FFE3D6",
"f.	c #ECECEC",
"g.	c #DBDBDB",
"h.	c #EEEEEE",
"i.	c #FFFCFB",
"j.	c #FFC6A5",
"k.	c #A44111",
"l.	c #0D02F6",
"m.	c #2D0CED",
"n.	c #A94400",
"o.	c #C0683B",
"p.	c #FFEDE5",
"q.	c #D4D4D4",
"r.	c #9B9B9B",
"s.	c #3A3A3A",
"t.	c #000000",
"u.	c #3D3D3D",
"v.	c #CECECE",
"w.	c #FFD8C5",
"x.	c #FFCDB1",
"y.	c #F4F4F4",
"z.	c #8A8A8A",
"A.	c #AAAAAA",
"B.	c #383838",
"C.	c #939393",
"D.	c #FFF5F1",
"E.	c #FFB481",
"F.	c #EB9E6E",
"G.	c #5A20D3",
"H.	c #6124CC",
"I.	c #DA8A5C",
"J.	c #FFC099",
"K.	c #E7E7E7",
"L.	c #161616",
"M.	c #4D4D4D",
"N.	c #DFDFDF",
"O.	c #FFF7F3",
"P.	c #FFEDE4",
"Q.	c #878787",
"R.	c #767676",
"S.	c #CACACA",
"T.	c #1D1D1D",
"U.	c #979797",
"V.	c #FFCDB3",
"W.	c #AD490D",
"X.	c #712BB1",
"Y.	c #722BAC",
"Z.	c #FFD3BC",
"`.	c #B8B8B8",
" +	c #7B7B7B",
".+	c #959595",
"++	c #FFB483",
"@+	c #FFFAF8",
"#+	c #EAEAEA",
"$+	c #B3B3B3",
"%+	c #F8F8F8",
"&+	c #F1F1F1",
"*+	c #FFDAC7",
"=+	c #BF673A",
"-+	c #8333A9",
";+	c #7B30AA",
">+	c #F1A474",
",+	c #FFD2BA",
"'+	c #A7A7A7",
")+	c #E6E6E6",
"!+	c #505050",
"~+	c #FFF9F7",
"{+	c #A2A2A2",
"]+	c #BEBEBE",
"^+	c #FFD9C6",
"/+	c #C26A3C",
"(+	c #963B6B",
"_+	c #340FD8",
":+	c #8E60D3",
"<+	c #742CAA",
"[+	c #F0A373",
"}+	c #B4B4B4",
"|+	c #A5A5A5",
"1+	c #FFF5F0",
"2+	c #FFECE2",
"3+	c #252525",
"4+	c #F6F6F6",
"5+	c #FFCCAF",
"6+	c #712BB0",
"7+	c #E19D6F",
"8+	c #772E9C",
"9+	c #7637AB",
"0+	c #6827C5",
"a+	c #E59667",
"b+	c #FFEAE0",
"c+	c #F2F2F2",
"d+	c #454545",
"e+	c #FFD6C0",
"f+	c #FFC9AB",
"g+	c #A8A8A8",
"h+	c #B5B5B5",
"i+	c #FFF4EF",
"j+	c #BA5F30",
"k+	c #5C22CF",
"l+	c #9F4C1F",
"m+	c #1403DA",
"n+	c #3C13CB",
"o+	c #3B13E2",
"p+	c #D58456",
"q+	c #FFF6F2",
"r+	c #EBEBEB",
"s+	c #898989",
"t+	c #7E7E7E",
"u+	c #FFE6D9",
"v+	c #FFDDCC",
"w+	c #FDFDFD",
"x+	c #B7B7B7",
"y+	c #424242",
"z+	c #484848",
"A+	c #BDBDBD",
"B+	c #FFF9F6",
"C+	c #F9AD7B",
"D+	c #A84300",
"E+	c #2108F1",
"F+	c #692700",
"G+	c #993C54",
"H+	c #B55828",
"I+	c #FFB88A",
"J+	c #FFE2D4",
"K+	c #FFFBF9",
"L+	c #FCFCFC",
"M+	c #FFD6C1",
"N+	c #FFCFB5",
"O+	c #FFF3ED",
"P+	c #FFFDFC",
"Q+	c #FFBD95",
"R+	c #E19263",
"S+	c #8F387B",
"T+	c #8E3846",
"U+	c #E59768",
"V+	c #FFBE97",
"W+	c #FFBA8D",
"X+	c #FFB788",
"Y+	c #FEB17F",
"Z+	c #BA5F31",
"`+	c #82324F",
" @	c #A34100",
".@	c #FAAD7B",
"+@	c #D9895B",
"@@	c #A24100",
"#@	c #C36C40",
"$@	c #E29365",
"%@	c #8C3700",
"&@	c #EEA170",
"*@	c #D17F52",
"=@	c #9E3F00",
"-@	c #D17E51",
";@	c #D07D50",
">@	c #863400",
",@	c #F0A272",
"'@	c #AE4B13",
")@	c #973C00",
"!@	c #B95D2F",
"~@	c #CA7649",
"{@	c #973B00",
"]@	c #CC784A",
"^@	c #F2A979",
"/@	c #B85C2D",
"(@	c #F8AE7C",
"_@	c #F0A878",
":@	c #F4AB7B",
"<@	c #EBA576",
"[@	c #FDB27F",
"}@	c #FDB17F",
"|@	c #F5AC7B",
"1@	c #F4AB7A",
"2@	c #C97548",
"3@	c #EFA271",
"4@	c #AD4A0F",
"5@	c #FDB17E",
"6@	c #CD794C",
"7@	c #DB8B5C",
"8@	c #8B3700",
"9@	c #9B3D00",
"0@	c #C36C3F",
"a@	c #F5A877",
"b@	c #CC794C",
"c@	c #9B3E00",
"d@	c #AC4709",
"e@	c #EA9D6D",
"f@	c #EEA070",
"g@	c #D48356",
"h@	c #B04E1A",
"i@	c #A04000",
"j@	c #B65827",
"k@	c #BF6639",
"l@	c #B95E2F",
"m@	c #AA4401",
"n@	c #993C00",
"                                                                                                ",
"                                                                                                ",
"                                                                                                ",
"                                      . + @ # $ $ % @ & *                                       ",
"                                  = - $ $ $ $ $ $ $ $ $ $ $ ; >                                 ",
"                              , ' $ $ ) ! ~         { , & ] $ $ ^ /                             ",
"                            ( $ $ _ :                       ! - $ ' >                           ",
"                          < $ [ }                               ( $ $ |                         ",
"                        1 $ - 2                                   3 $ $ 4                       ",
"                      3 $ - ~                                       5 $ ] {                     ",
"                    6 $ ] ~                                           7 $ 8                     ",
"                    _ $ 9               0 a b c c d e f                 g $ h                   ",
"                  . $ i           j k l l l l l l l l l l m e             n #                   ",
"                = o @ {       0 p l l l l l l l l l l l l l l l q         , @ r s               ",
"              t $ $ $ 7     d l l l l l l l l l l l l l l l l l l u v     # $ $ w               ",
"          s x y $ $ $ z   p l A B C D E F G l l l l l H I D D E J l l K   # $ $ w c 8 L         ",
"        M $ N O $ $ $ P Q l R S T T T T T U V l l W C T T T T T T X Y l k # $ $ w Z $ $         ",
"      l ` $  ...$ $ $ +.l @.T T #.$.%.T T T &.*.=.X T T T -.$.;.T T >.,.u '.$ $ w ).$ $ !.      ",
"      l ` $ ~...$ $ {.l ].T ^./.(._._.:.<.[.T S C T T }.|._._._.1.2.T 3.l 4.$ $ w ).$ $ 5.l     ",
"      l ` $ ~...$ $ 6.l X 7.8._.9.0.a.b._.c.d.T T T e._._.f.g.h._.i.j.T J k.l.$ w ).$ $ 5.l     ",
"    l l ` $ ~...$ m.n.o.T p._.q.r.s.t.u.v._.w.T T x._.y.z.A.B.t.C.9.D.E.F.l G.$ w ).$ $ 5.l     ",
"      l ` $ ~...$ H.l I.J._.K.L.0.M.t.t.t.N.O.T T P._.Q.R.S.T.t.t.U._.V.&.W.X.$ w ).$ $ 5.l     ",
"      l ` $ ~...$ Y.l E Z._.`.b. +t.t.t.t..+_.++T @+#+$+%+t.t.t.t.t.&+*+T =+-+$ w ).$ $ 5.l     ",
"      l ` $ ~...$ ;+l >+,+_.'+)+!+t.t.t.t. +_.[.T ~+g.{+]+t.t.t.t.t.K.^+T /+-+$ w ).$ $ (+      ",
"        _+$ :+..$ <+l [+7._.}+t.t.t.t.t.t.|+1+T T 2+&+t.t.t.t.t.t.3+4+5+T o.6+$ w 7+$ $ 8+      ",
"        3 $ N 9+$ 0+l a+T b+c+d+t.t.t.t.B.f.e+T T f+_.g+t.t.t.t.t.h+i+T T j+k+$ w l+$ -         ",
"          7 m+n+$ o+l p+T ^.q+r+s+t.t.t+)+u+T T T T v+w+x+y+t.z+A+B+2.T C+D+E+$ w F+g           ",
"              , $ $ G+H+T T I+J+K+w+L+O.M+T T T T T T N+O+_.b.P+/.Q+T T R+S+$ $ w               ",
"                    T+l U+T T T T V+W+T T T T T T T T T T X+2.d.T T T Y+Z+`+                    ",
"                       @H+.@T T T T T T T T T T T T T T T T T T T T T +@@@                      ",
"                        n.#@S T T T T T T T T T T T T T T T T T T T $@l %@                      ",
"                        c l Z+&@T T T T T T T T T T T T T T T T .@*@l d                         ",
"                          =@l l -@T T T T T T T T T T T T T T T ;@l l  @                        ",
"                          >@l l ,@T T T T T T T T T T T T T T T .@'@l )@                        ",
"                            l !@T T T T T T T T T T T T T T T T T ~@l {@                        ",
"                            m ]@T T T T T T T T T T T T T T T T T B l k                         ",
"                            k J T T T T T T T T T T T T T ^@T T T B l f                         ",
"                            =@/@T T T (@_@:@<@[@}@<@|@_@1@T T T T 2@l 0                         ",
"                              l 3@T T T T T T T T T T T T T T T C+4@l                           ",
"                              =@=+5@T T T T T T T T T T T T T T 6@l =@                          ",
"                                l ;@&.T T T T T T T T T T T T 7@l l 8@                          ",
"                                9@l 0@a@T T T T T T T T T .@b@l l c@                            ",
"                                  d l d@R e@S T T T &.f@g@h@l l @@                              ",
"                                    i@l l l l j@k@l@m@l l l l e                                 ",
"                                      j p l l l l l l l l d %@                                  ",
"                                          0 =@)@c n@k 0                                         ",
"                                                                                                ",
"                                                                                                "};
