/* XPM */
static char * audmonkey32_xpm[] = {
"32 32 274 2",
"  	c None",
". 	c #0000CC",
"+ 	c #0000D6",
"@ 	c #0000DD",
"# 	c #0000D8",
"$ 	c #0000CF",
"% 	c #0000DC",
"& 	c #0000FF",
"* 	c #0000EE",
"= 	c #0000D2",
"- 	c #0000D7",
"; 	c #0000E5",
"> 	c #0000E7",
", 	c #0000BB",
"' 	c #0000BC",
") 	c #0000FB",
"! 	c #0000E8",
"~ 	c #0000B6",
"{ 	c #0000D4",
"] 	c #0000C3",
"^ 	c #0000CB",
"/ 	c #0000AB",
"( 	c #0000F1",
"_ 	c #0000B5",
": 	c #0000C1",
"< 	c #0000ED",
"[ 	c #0000DE",
"} 	c #0000F2",
"| 	c #0000D1",
"1 	c #0000F4",
"2 	c #0000B8",
"3 	c #0000EF",
"4 	c #0402CF",
"5 	c #0603C7",
"6 	c #2E1347",
"7 	c #552200",
"8 	c #160886",
"9 	c #0502B6",
"0 	c #0201C9",
"a 	c #070566",
"b 	c #70476D",
"c 	c #824822",
"d 	c #562300",
"e 	c #542200",
"f 	c #562200",
"g 	c #5F2A07",
"h 	c #A16339",
"i 	c #311FAF",
"j 	c #0C05B9",
"k 	c #0000A6",
"l 	c #0000CE",
"m 	c #290F40",
"n 	c #A07092",
"o 	c #FEB27F",
"p 	c #9B5F35",
"q 	c #5C2705",
"r 	c #E59D6C",
"s 	c #FFB380",
"t 	c #4631BF",
"u 	c #180A9A",
"v 	c #0703BB",
"w 	c #0000FD",
"x 	c #0000AA",
"y 	c #0000D9",
"z 	c #321333",
"A 	c #E69D6E",
"B 	c #A96B40",
"C 	c #D28C5E",
"D 	c #DD9666",
"E 	c #BF7D50",
"F 	c #743C17",
"G 	c #622D0A",
"H 	c #B37247",
"I 	c #E09969",
"J 	c #E29B6A",
"K 	c #B9774B",
"L 	c #A5663C",
"M 	c #FBB07D",
"N 	c #1A0B9A",
"O 	c #14079D",
"P 	c #331332",
"Q 	c #926070",
"R 	c #D38E5F",
"S 	c #FFB786",
"T 	c #FFB583",
"U 	c #FCB07D",
"V 	c #90542C",
"W 	c #6E3713",
"X 	c #EEA473",
"Y 	c #FFB482",
"Z 	c #F3A877",
"` 	c #965931",
" .	c #4630B5",
"..	c #1F0F9E",
"+.	c #160899",
"@.	c #2F1239",
"#.	c #0B04DE",
"$.	c #B6764C",
"%.	c #FFC096",
"&.	c #FFEEE2",
"*.	c #FFFEFE",
"=.	c #FFFDFC",
"-.	c #FFE6D6",
";.	c #FFBA8B",
">.	c #FAAE7C",
",.	c #E49B6C",
"'.	c #FFB888",
").	c #FFE3D0",
"!.	c #FFFDFB",
"~.	c #FFFFFE",
"{.	c #FFF1E7",
"].	c #FFC49C",
"^.	c #E9A06F",
"/.	c #582C3A",
"(.	c #0100FC",
"_.	c #190B9A",
":.	c #0F05AB",
"<.	c #16075C",
"[.	c #0000FE",
"}.	c #52273F",
"|.	c #FAB586",
"1.	c #FFF8F3",
"2.	c #B4B4B4",
"3.	c #4D4D4D",
"4.	c #434343",
"5.	c #AEAEAE",
"6.	c #FFEEE3",
"7.	c #FFB481",
"8.	c #FFE7D6",
"9.	c #DBDBDB",
"0.	c #555555",
"a.	c #444444",
"b.	c #808080",
"c.	c #FAF7F5",
"d.	c #FFBD91",
"e.	c #995C33",
"f.	c #240E94",
"g.	c #1308A5",
"h.	c #0000CD",
"i.	c #00007D",
"j.	c #1C0BAB",
"k.	c #91552D",
"l.	c #FFD3B5",
"m.	c #D1D1D1",
"n.	c #040404",
"o.	c #424242",
"p.	c #646464",
"q.	c #565656",
"r.	c #C9C9C9",
"s.	c #FFBD90",
"t.	c #FBFBFB",
"u.	c #232323",
"v.	c #121212",
"w.	c #626262",
"x.	c #888888",
"y.	c #828282",
"z.	c #FFD9C0",
"A.	c #CA8758",
"B.	c #4E1F15",
"C.	c #0402F2",
"D.	c #0100D4",
"E.	c #3E1944",
"F.	c #A8683E",
"G.	c #FFDBC2",
"H.	c #909090",
"I.	c #000000",
"J.	c #363636",
"K.	c #3C3C3C",
"L.	c #858585",
"M.	c #FFCCAA",
"N.	c #FFC59E",
"O.	c #D9D9D9",
"P.	c #111111",
"Q.	c #616161",
"R.	c #FFE2CF",
"S.	c #1F0DA1",
"T.	c #0000D5",
"U.	c #0502F0",
"V.	c #532105",
"W.	c #A6673D",
"X.	c #FFCBA8",
"Y.	c #BDBDBD",
"Z.	c #B3B2B2",
"`.	c #FFB787",
" +	c #F6F4F2",
".+	c #101010",
"++	c #696969",
"@+	c #FFD2B3",
"#+	c #DC9566",
"$+	c #3A1752",
"%+	c #0000B2",
"&+	c #0000C9",
"*+	c #000071",
"=+	c #1207C8",
"-+	c #8A4F28",
";+	c #FFE9DA",
">+	c #838383",
",+	c #0C0C0C",
"'+	c #0B0B0B",
")+	c #7A7A7A",
"!+	c #FFDAC1",
"~+	c #FFD3B6",
"{+	c #B9B9B8",
"]+	c #1E1E1E",
"^+	c #030303",
"/+	c #4A4A4A",
"(+	c #EDDDD3",
"_+	c #C17E51",
":+	c #491D25",
"<+	c #0000A9",
"[+	c #0000B0",
"}+	c #1E0D8D",
"|+	c #5E2907",
"1+	c #F4AA78",
"2+	c #FDE5D4",
"3+	c #FCE1D0",
"4+	c #FFC8A2",
"5+	c #FFE3CF",
"6+	c #F9E2D3",
"7+	c #FFD6BA",
"8+	c #884D26",
"9+	c #532107",
"0+	c #0000B9",
"a+	c #A2643A",
"b+	c #D48F60",
"c+	c #B7754A",
"d+	c #DA9364",
"e+	c #D18C5E",
"f+	c #9D5F36",
"g+	c #562100",
"h+	c #6D3612",
"i+	c #EDA472",
"j+	c #572402",
"k+	c #93572F",
"l+	c #FFBB8D",
"m+	c #EBB590",
"n+	c #6C3511",
"o+	c #552100",
"p+	c #94572F",
"q+	c #EFB28A",
"r+	c #FFDFCA",
"s+	c #FFE8D8",
"t+	c #FFEFE5",
"u+	c #FFF7F2",
"v+	c #FFFFFF",
"w+	c #E0C8B8",
"x+	c #F8AF7E",
"y+	c #6C3612",
"z+	c #FBB07E",
"A+	c #DFC7B7",
"B+	c #F5F2F1",
"C+	c #E0BCA3",
"D+	c #FCB17E",
"E+	c #C27F52",
"F+	c #E1BAA0",
"G+	c #E5DAD3",
"H+	c #EEEDED",
"I+	c #E5DDD8",
"J+	c #E4C6B1",
"K+	c #ECAF86",
"L+	c #9B5E35",
"M+	c #552300",
"N+	c #D69061",
"O+	c #F7AD7C",
"P+	c #B9784C",
"Q+	c #572500",
"R+	c #B67348",
"S+	c #F1A875",
"T+	c #E79E6D",
"U+	c #A6693E",
"V+	c #B8784C",
"W+	c #C88458",
"X+	c #CB8658",
"Y+	c #C88557",
"                                                                ",
"                          . + @ @ # $                           ",
"                      % & * # = = - ; & > ,                     ",
"                  ' ) ! ~               { & @                   ",
"                ] & ^                     / ( >                 ",
"              _ & :                           < [               ",
"              } |                               1 :             ",
"            $ ;                                 2 3             ",
"          % 4 5 6                             7 8 9 0 2         ",
"      ] a & & & b c 7         d e f         g h i & & j k       ",
"    l & m & & & n o p 7 7 7 7 7 7 7 7 7 7 q r s t & & u v w x   ",
"    y & z & & & n A B C D E F 7 7 G H I J K L M t & & N O & ,   ",
"    y & P & & & Q R s S T s U V W X s Y S s Z `  .& & ..+.& ,   ",
"    y & @.& & #.$.%.&.*.=.-.;.>.,.'.).!.~.{.].^./.(.& _.:.& ,   ",
"    y & <.& [.}.|.1.2.3.4.5.6.7.s 8.9.0.a.b.c.d.e.f.& g.h.& ,   ",
"    y & i.& j.k.l.m.n.o.p.q.r.].s.t.u.v.w.x.y.z.A.B.C.D.l & ,   ",
"    y & i.& E.F.G.H.I.I.J.K.L.M.N.O.I.I.P.Q.K.R.I 7 S.T.l & ,   ",
"    { & i.U.V.W.X.Y.I.I.I.I.Z.s.`. +.+I.I.I.++@+#+7 $+T.l & %+  ",
"      &+*+=+7 -+s ;+>+,+'+)+!+s s ~+{+]+^+/+(+Y _+7 :+T.<+[+    ",
"          }+7 |+1+7.l.2+3+X.s s s s 4+5+6+7+T s 8+7 9+0+        ",
"            7 7 a+s s s s s s s s s s s s s s b+d 7 7           ",
"            7 7 d c+s s s s s s s s s s s s d+G 7 7 7           ",
"            7 7 7 7 e+s s s s s s s s s s s f+7 7 7 g+          ",
"            7 7 7 h+o s s s s s s s s s s s i+j+7 7             ",
"              7 7 k+s s s s s s Y l+].X.~+m+s n+7 o+            ",
"              7 7 p+s q+r+s+t+u+*.v+v+v+w+x+s y+7               ",
"                7 h+o z+A+v+v+v+v+v+B+C+D+s i+j+g+              ",
"                  7 E+s z+F+G+H+I+J+K+s s s L+M+                ",
"                    G N+s s s O+s s s s s P+Q+                  ",
"                        R+S+s s s s s T+U+                      ",
"                            V+W+X+Y+                            ",
"                                                                "};
