/* XPM */
static const char * const audmonky32_xpm[] = {
"32 32 219 2",
"  	c None",
". 	c #0000E3",
"+ 	c #0000EC",
"@ 	c #0000F1",
"# 	c #0000FF",
"$ 	c #0000F2",
"% 	c #0000ED",
"& 	c #0000E7",
"* 	c #0000E1",
"= 	c #0000F7",
"- 	c #0000FE",
"; 	c #0000E9",
"> 	c #0000F8",
", 	c #0000DE",
"' 	c #0000EF",
") 	c #0000EA",
"! 	c #0000EB",
"~ 	c #0000FA",
"{ 	c #0000F6",
"] 	c #0000FB",
"^ 	c #0000DB",
"/ 	c #0000FC",
"( 	c #0000CD",
"_ 	c #0000F5",
": 	c #A24100",
"< 	c #A03F00",
"[ 	c #9F3F00",
"} 	c #A74300",
"| 	c #0000E8",
"1 	c #A14000",
"2 	c #A74200",
"3 	c #AA4400",
"4 	c #A64200",
"5 	c #0000C9",
"6 	c #0000F9",
"7 	c #0000DC",
"8 	c #993C00",
"9 	c #A84300",
"0 	c #9E3F00",
"a 	c #0000B9",
"b 	c #0000B0",
"c 	c #8734AA",
"d 	c #0000FD",
"e 	c #4216D3",
"f 	c #923A00",
"g 	c #AB4706",
"h 	c #D58456",
"i 	c #EEA171",
"j 	c #F1A473",
"k 	c #E89A6A",
"l 	c #BF673A",
"m 	c #B45625",
"n 	c #E09163",
"o 	c #F2A574",
"p 	c #F3A674",
"q 	c #E39465",
"r 	c #B85D2E",
"s 	c #A94300",
"t 	c #732C93",
"u 	c #712B7E",
"v 	c #833300",
"w 	c #BC7EBB",
"x 	c #6526C0",
"y 	c #AE4D17",
"z 	c #FFB380",
"A 	c #FFBD94",
"B 	c #FFBA8D",
"C 	c #D18053",
"D 	c #F7AB79",
"E 	c #FFB789",
"F 	c #FFBF97",
"G 	c #FCB07D",
"H 	c #C36C40",
"I 	c #853479",
"J 	c #A16C90",
"K 	c #6726B9",
"L 	c #CC8EC1",
"M 	c #0901FA",
"N 	c #9F3F4F",
"O 	c #E09162",
"P 	c #FFC7A7",
"Q 	c #FFF4F0",
"R 	c #FFFFFF",
"S 	c #FFEEE6",
"T 	c #FFBE97",
"U 	c #FDB17E",
"V 	c #F7AA78",
"W 	c #FFB98C",
"X 	c #FFE9DF",
"Y 	c #FFF6F1",
"Z 	c #FFC9AB",
"` 	c #AE4C17",
" .	c #3912EA",
"..	c #AB7794",
"+.	c #762DAA",
"@.	c #9A3D00",
"#.	c #6324CF",
"$.	c #B35524",
"%.	c #FEBA8F",
"&.	c #FFFCFB",
"*.	c #DADADA",
"=.	c #969696",
"-.	c #7D7D7D",
";.	c #D2D2D2",
">.	c #FFF5F0",
",.	c #FFB481",
"'.	c #EBEBEB",
").	c #B7B7B7",
"!.	c #B2B2B2",
"~.	c #FBF8F7",
"{.	c #FFC29E",
"].	c #D38255",
"^.	c #772DB8",
"/.	c #8333A6",
"(.	c #CE7B4E",
"_.	c #FFDCCA",
":.	c #E3E3E3",
"<.	c #B0B0B0",
"[.	c #7C7C7C",
"}.	c #000000",
"|.	c #E2E2E2",
"1.	c #FFCDB1",
"2.	c #FDFDFD",
"3.	c #979797",
"4.	c #A7A7A7",
"5.	c #B4B4B4",
"6.	c #FFE1D3",
"7.	c #EB9E6E",
"8.	c #87358F",
"9.	c #943A00",
"0.	c #87357D",
"a.	c #DA8A5B",
"b.	c #FFE4D8",
"c.	c #DCDCDC",
"d.	c #D5D5D5",
"e.	c #FFD6C0",
"f.	c #FFC7A8",
"g.	c #E7E7E7",
"h.	c #C2C2C2",
"i.	c #6A6A6A",
"j.	c #FFE5D9",
"k.	c #8A367C",
"l.	c #B97AB9",
"m.	c #873492",
"n.	c #D88759",
"o.	c #FFD0B7",
"p.	c #FFC19B",
"q.	c #FFBB91",
"r.	c #F8F7F7",
"s.	c #383838",
"t.	c #A2A2A2",
"u.	c #FFD9C5",
"v.	c #87349B",
"w.	c #9D678E",
"x.	c #3912D6",
"y.	c #0000E6",
"z.	c #6D29C6",
"A.	c #772DB7",
"B.	c #CB774A",
"C.	c #FFB381",
"D.	c #FFF0E8",
"E.	c #B6B6B6",
"F.	c #303030",
"G.	c #202020",
"H.	c #FFE2D4",
"I.	c #FFDBC8",
"J.	c #515151",
"K.	c #8B8B8B",
"L.	c #F4E6DF",
"M.	c #FFB788",
"N.	c #E79969",
"O.	c #6C29C0",
"P.	c #541E91",
"Q.	c #4618DF",
"R.	c #AF4E1A",
"S.	c #FFB687",
"T.	c #FFEBE2",
"U.	c #FFD2BB",
"V.	c #FFCEB3",
"W.	c #FFEAE0",
"X.	c #FFDCCB",
"Y.	c #CA774A",
"Z.	c #3912EC",
"`.	c #0000B7",
" +	c #EEA170",
".+	c #A54200",
"++	c #E19264",
"@+	c #F0A372",
"#+	c #B55828",
"$+	c #C36D40",
"%+	c #FBAE7C",
"&+	c #E99B6B",
"*+	c #AB4503",
"=+	c #C46D41",
"-+	c #FCB07E",
";+	c #B25322",
">+	c #A24000",
",+	c #DD8E60",
"'+	c #CA7549",
")+	c #A94400",
"!+	c #A04000",
"~+	c #F9AF7D",
"{+	c #F6AC7B",
"]+	c #C97548",
"^+	c #F2AA79",
"/+	c #B25220",
"(+	c #9C3E00",
"_+	c #A44100",
":+	c #E8996A",
"<+	c #AC4B15",
"[+	c #E19263",
"}+	c #D58356",
"|+	c #BC6234",
"1+	c #DB8C5E",
"2+	c #EC9E6E",
"3+	c #9B3E00",
"4+	c #9D3E00",
"5+	c #A44200",
"6+	c #973B00",
"                                                                ",
"                                                                ",
"                        . + @ # # $ % &                         ",
"                    * = - ; . = > , ' = # )                     ",
"                  % # !                 . ~ {                   ",
"                ' ] ^                       @ ]                 ",
"              . / (                           ' _               ",
"              / ,           : < [ }             _ ;             ",
"            | )       1 2 3 3 3 3 3 3 4 :       5 ]             ",
"          { 6 7   8 9 3 3 3 3 3 3 3 3 3 3 3 0   a > > b         ",
"      & c d # e f g h i j k l 3 3 m n o p q r s t # # u _       ",
"    v # w d # x y i z A B z z C r D z E F z G H I # # J # K     ",
"    8 # L d M N O P Q R R S T U V W X R R Y Z D `  .# ..# +.3   ",
"    @.# L d #.$.%.&.*.=.-.;.>.,.z S '.).-.!.~.{.].^.# ..# +.3   ",
"    @.# L d /.(._.:.<.[.}.}.|.1.{.2.3.4.}.}.5.6.7.8.# ..# +.3   ",
"    9.# L d 0.a.b.c.d.}.}.}.<.e.f.g.h.i.}.}.[.j.j k.# ..# +.    ",
"      # l.d m.n.o.*.}.}.}.}.d.p.q.r.s.}.}.}.t.u.j v.# w.# x.    ",
"      y.z.d A.B.C.D.E.F.G.!.H.z z I.c.J.}.K.L.M.N.O.# P.%       ",
"          / Q.R.G S.u.S T.U.z z z z V.W.D.X.M.z Y.Z.- `.        ",
"              [ n.z z z z z z z z z z z z z z  +.+              ",
"                4 ++z z z z z z z z z z z z @+#+                ",
"                  } $+%+z z z z z z z z z &+*+1                 ",
"                  } =+z z z z z z z z z z -+;+3                 ",
"                  >+,+z z z z z z z z z z z '+)+                ",
"                  !+,+z z ~+z z z z ~+{+z z ]+[                 ",
"                    $+z z z ^+z z ^+z z z -+/+(+                ",
"                    _+:+z z z z z z z z z h }                   ",
"                      <+[+z z z z z z -+}+3 <                   ",
"                      >+3 |+1+2+j &+n.$.3 3+                    ",
"                        4+5+3 3 3 3 3 4 0                       ",
"                              1 6+9                             ",
"                                                                "};
