/* XPM */
static char * AudMonkeyLogo48x48_xpm[] = {
"48 48 444 2",
"  	c None",
". 	c #000042",
"+ 	c #000076",
"@ 	c #0000AB",
"# 	c #0000B9",
"$ 	c #0000B8",
"% 	c #00007C",
"& 	c #000044",
"* 	c #000064",
"= 	c #0000BF",
"- 	c #0000DE",
"; 	c #0000ED",
"> 	c #0000FC",
", 	c #0000FE",
"' 	c #0000FF",
") 	c #0000F0",
"! 	c #0000E2",
"~ 	c #0000CF",
"{ 	c #00008D",
"] 	c #0000C6",
"^ 	c #0000EC",
"/ 	c #0000FA",
"( 	c #0000E9",
"_ 	c #0000EB",
": 	c #0000F7",
"< 	c #0000DB",
"[ 	c #00009C",
"} 	c #00009D",
"| 	c #0000E3",
"1 	c #0000E1",
"2 	c #0000C5",
"3 	c #00007A",
"4 	c #000059",
"5 	c #000055",
"6 	c #000065",
"7 	c #0000B2",
"8 	c #0000D8",
"9 	c #0000EE",
"0 	c #0000F6",
"a 	c #0000CB",
"b 	c #000053",
"c 	c #0000B3",
"d 	c #0000F1",
"e 	c #0000FD",
"f 	c #0000DF",
"g 	c #0000A3",
"h 	c #000061",
"i 	c #0000C7",
"j 	c #0000EF",
"k 	c #0000DD",
"l 	c #000077",
"m 	c #0000F5",
"n 	c #0000C1",
"o 	c #000046",
"p 	c #000081",
"q 	c #0000DA",
"r 	c #000079",
"s 	c #0000A1",
"t 	c #0000F2",
"u 	c #0000AC",
"v 	c #000000",
"w 	c #000054",
"x 	c #000069",
"y 	c #0000E6",
"z 	c #0000C0",
"A 	c #0000CD",
"B 	c #0000AD",
"C 	c #000090",
"D 	c #0000F4",
"E 	c #00003C",
"F 	c #0000D9",
"G 	c #0000D6",
"H 	c #000034",
"I 	c #00007F",
"J 	c #0000C4",
"K 	c #0000E0",
"L 	c #2E1098",
"M 	c #552200",
"N 	c #290DAA",
"O 	c #0000BE",
"P 	c #00006D",
"Q 	c #39149A",
"R 	c #552100",
"S 	c #3412B0",
"T 	c #0000D7",
"U 	c #00007D",
"V 	c #00006E",
"W 	c #0501AB",
"X 	c #1304D6",
"Y 	c #AA76AB",
"Z 	c #E39D6F",
"` 	c #A56D49",
" .	c #562402",
"..	c #5D2C0D",
"+.	c #B87B55",
"@.	c #E9A273",
"#.	c #9E6DBD",
"$.	c #0C02D2",
"%.	c #0000B7",
"&.	c #0000CE",
"*.	c #3B167F",
"=.	c #2D0FBD",
"-.	c #B37DAD",
";.	c #FFB380",
">.	c #FEB380",
",.	c #C2835B",
"'.	c #552301",
").	c #5C2A0B",
"!.	c #DB976A",
"~.	c #A573BE",
"{.	c #3311AE",
"].	c #2A0DAE",
"^.	c #0000C9",
"/.	c #441A69",
"(.	c #EAA374",
"_.	c #6D3B1F",
":.	c #885536",
"<.	c #97613F",
"[.	c #835032",
"}.	c #5B290A",
"|.	c #572403",
"1.	c #794729",
"2.	c #9E6745",
"3.	c #A16946",
"4.	c #804D2F",
"5.	c #7C4A2C",
"6.	c #EDA575",
"7.	c #3412AB",
"8.	c #3F178B",
"9.	c #0000DC",
"0.	c #D49266",
"a.	c #C8885E",
"b.	c #F5AB7A",
"c.	c #F1A877",
"d.	c #B77B54",
"e.	c #5D2B0D",
"f.	c #8E5A3A",
"g.	c #E19C6E",
"h.	c #FEB27F",
"i.	c #E8A172",
"j.	c #A66D49",
"k.	c #D18F64",
"l.	c #401889",
"m.	c #B17BAD",
"n.	c #C9895F",
"o.	c #EAA273",
"p.	c #DF9A6D",
"q.	c #673619",
"r.	c #AC724E",
"s.	c #FBB07E",
"t.	c #C0825A",
"u.	c #BE8058",
"v.	c #A471BE",
"w.	c #6E4491",
"x.	c #FFC09A",
"y.	c #FFDCCA",
"z.	c #FFE8DD",
"A.	c #FFE6DA",
"B.	c #FFD6C0",
"C.	c #FFB98C",
"D.	c #DB976B",
"E.	c #9D6643",
"F.	c #FDB17E",
"G.	c #FFB686",
"H.	c #FFD2B9",
"I.	c #FFE4D7",
"J.	c #FFDFCE",
"K.	c #FFC4A2",
"L.	c #B17651",
"M.	c #5932A0",
"N.	c #0100FF",
"O.	c #431A6D",
"P.	c #3211CE",
"Q.	c #C3845E",
"R.	c #FFB381",
"S.	c #FFD9C6",
"T.	c #FFFDFC",
"U.	c #FFFFFF",
"V.	c #FFF8F5",
"W.	c #FFC9AB",
"X.	c #FAAF7D",
"Y.	c #FFC29D",
"Z.	c #FFF4EF",
"`.	c #FFFEFE",
" +	c #FFE2D3",
".+	c #FFB583",
"++	c #F9AE7C",
"@+	c #76452E",
"#+	c #3010D1",
"$+	c #3B1593",
"%+	c #2C0E95",
"&+	c #280DC3",
"*+	c #1A06EF",
"=+	c #693A4A",
"-+	c #F8AE7C",
";+	c #FFD5BE",
">+	c #FFFFFE",
",+	c #FAFAFA",
"'+	c #C3C3C3",
")+	c #8B8B8B",
"!+	c #898989",
"~+	c #BEBEBE",
"{+	c #F8F8F8",
"]+	c #FFFBFA",
"^+	c #FFC19D",
"/+	c #FFBA8F",
"(+	c #FFF7F4",
"_+	c #E1E1E1",
":+	c #9F9F9F",
"<+	c #808080",
"[+	c #A3A3A3",
"}+	c #E5E5E5",
"|+	c #FFDFCF",
"1+	c #C6875E",
"2+	c #512047",
"3+	c #1806F1",
"4+	c #2A0EBA",
"5+	c #1404C0",
"6+	c #0100DD",
"7+	c #441A9B",
"8+	c #AC724D",
"9+	c #FFB788",
"0+	c #FFF9F6",
"a+	c #FBFBFB",
"b+	c #858585",
"c+	c #B8B8B8",
"d+	c #4F4F4F",
"e+	c #797979",
"f+	c #FFE9DE",
"g+	c #CDCDCD",
"h+	c #212121",
"i+	c #626262",
"j+	c #C6C6C6",
"k+	c #3C3C3C",
"l+	c #464646",
"m+	c #D6D6D6",
"n+	c #FFBE97",
"o+	c #F0A777",
"p+	c #5A2909",
"q+	c #4319A1",
"r+	c #1F08E9",
"s+	c #54221F",
"t+	c #D08F64",
"u+	c #FFCAAC",
"v+	c #C4C4C4",
"w+	c #919191",
"x+	c #999999",
"y+	c #FCFCFC",
"z+	c #B9B9B9",
"A+	c #FFFCFA",
"B+	c #FFB685",
"C+	c #FFF4EE",
"D+	c #F7F7F7",
"E+	c #434343",
"F+	c #474747",
"G+	c #9E9E9E",
"H+	c #E2E2E2",
"I+	c #D7D7D7",
"J+	c #585858",
"K+	c #542124",
"L+	c #1D07EC",
"M+	c #3F17AE",
"N+	c #FFD2BA",
"O+	c #929292",
"P+	c #636363",
"Q+	c #717171",
"R+	c #FFBB90",
"S+	c #FFB481",
"T+	c #FFFAF7",
"U+	c #DDDDDD",
"V+	c #010101",
"W+	c #C7C7C7",
"X+	c #BCBCBC",
"Y+	c #E7E7E7",
"Z+	c #FFDDCB",
"`+	c #955F3E",
" @	c #3D17B2",
".@	c #0501FC",
"+@	c #4F1F5D",
"@@	c #E59F70",
"#@	c #FFCAAB",
"$@	c #989898",
"%@	c #090909",
"&@	c #878787",
"*@	c #FFB585",
"=@	c #FFF3EE",
"-@	c #E0E0E0",
";@	c #030303",
">@	c #050505",
",@	c #040404",
"'@	c #E9E9E9",
")@	c #FFD5BF",
"!@	c #9B6442",
"~@	c #4F1F61",
"{@	c #0100FE",
"]@	c #0000D5",
"^@	c #1D08EB",
"/@	c #DE9A6C",
"(@	c #FFB787",
"_@	c #D1D1D1",
":@	c #020202",
"<@	c #FFDECD",
"[@	c #5C5C5C",
"}@	c #6F6F6F",
"|@	c #FDFBFA",
"1@	c #FFBE95",
"2@	c #8E5A39",
"3@	c #542217",
"4@	c #1C07ED",
"5@	c #0000D0",
"6@	c #00005C",
"7@	c #0000CA",
"8@	c #3010D2",
"9@	c #CA8A60",
"0@	c #FFD3BB",
"a@	c #FEFDFD",
"b@	c #A6A6A6",
"c@	c #0A0A0A",
"d@	c #9A9A9A",
"e@	c #FCF8F6",
"f@	c #FFC09B",
"g@	c #FFB98D",
"h@	c #FFF6F2",
"i@	c #DFDFDF",
"j@	c #525252",
"k@	c #FCB17E",
"l@	c #6C3B1F",
"m@	c #2E0FD5",
"n@	c #00007E",
"o@	c #3915BF",
"p@	c #9F6845",
"q@	c #FFD7C2",
"r@	c #FEFBFA",
"s@	c #DCDCDC",
"t@	c #B1B1B1",
"u@	c #B0B0B0",
"v@	c #D8D8D8",
"w@	c #FEF5F2",
"x@	c #FFC7A7",
"y@	c #FFF3ED",
"z@	c #F1F1F1",
"A@	c #BFBFBF",
"B@	c #ABABAB",
"C@	c #C2C2C2",
"D@	c #F4F3F2",
"E@	c #FFB483",
"F@	c #562301",
"G@	c #3714C2",
"H@	c #000073",
"I@	c #401894",
"J@	c #5F2E10",
"K@	c #F1A878",
"L@	c #FFBE96",
"M@	c #FFDAC7",
"N@	c #FFD3BC",
"O@	c #FEB788",
"P@	c #FEB483",
"Q@	c #FECFB5",
"R@	c #FFE3D5",
"S@	c #FFE6DB",
"T@	c #FFC29E",
"U@	c #AF744F",
"V@	c #3F189A",
"W@	c #0000BC",
"X@	c #AD734E",
"Y@	c #FFB27F",
"Z@	c #EAA373",
"`@	c #5E2D0F",
" #	c #582605",
".#	c #D59266",
"+#	c #F7AD7B",
"@#	c #875334",
"##	c #5F2E11",
"$#	c #8D5939",
"%#	c #C6865D",
"&#	c #C4855C",
"*#	c #623013",
"=#	c #F2A878",
"-#	c #FBB07D",
";#	c #7B482B",
">#	c #A46B48",
",#	c #BF8159",
"'#	c #FFC7A6",
")#	c #F5B48B",
"!#	c #DF9A6C",
"~#	c #D39065",
"{#	c #FFCBAD",
"]#	c #FFDBC9",
"^#	c #FFE3D6",
"/#	c #FFEBE1",
"(#	c #FFF2EC",
"_#	c #FFF9F5",
":#	c #FFFCFB",
"<#	c #E9DED9",
"[#	c #F6AF80",
"}#	c #EBBFA7",
"|#	c #FFF4F0",
"1#	c #FFFAF8",
"2#	c #E7D9D2",
"3#	c #A56C48",
"4#	c #F9B07F",
"5#	c #E8DAD4",
"6#	c #E4C9BC",
"7#	c #FAB07F",
"8#	c #C08259",
"9#	c #623113",
"0#	c #F2A978",
"a#	c #F7AF7F",
"b#	c #E6D3CB",
"c#	c #FDFDFD",
"d#	c #FEFEFE",
"e#	c #EBE4E0",
"f#	c #E9B597",
"g#	c #7C492B",
"h#	c #A86E4A",
"i#	c #FDB17F",
"j#	c #E8B89D",
"k#	c #F0EFEE",
"l#	c #F6F5F5",
"m#	c #EDEBE9",
"n#	c #E8D7CF",
"o#	c #E8B89E",
"p#	c #C2835A",
"q#	c #C3845B",
"r#	c #F8AE7D",
"s#	c #F3AB7B",
"t#	c #D79468",
"u#	c #5D2B0C",
"v#	c #592605",
"w#	c #B87B54",
"x#	c #CB8A60",
"y#	c #643215",
"z#	c #9F6643",
"A#	c #E39D6E",
"B#	c #FDB27F",
"C#	c #EEA675",
"D#	c #B97C54",
"E#	c #582504",
"F#	c #C8865B",
"G#	c #F6AA78",
"H#	c #FEB17E",
"I#	c #FEB17F",
"J#	c #FBAF7C",
"K#	c #E79E6E",
"                                                                                                ",
"                                        . + @ # $ @ % &                                         ",
"                                  * = - ; > , ' ' , > ) ! ~ {                                   ",
"                              . ] ^ ' ' ' / ^ ( ( _ : ' ' ' : < [                               ",
"                            } | , ' / 1 2 3 4     5 6 7 8 9 ' ' 0 a b                           ",
"                          c d ' e f g                     h i j ' , k l                         ",
"                        7 m ' m n o                           p q e ' | r                       ",
"                      s t ' ) u                                 v i / ' k w                     ",
"                    x y ' ) g                                       z / , a                     ",
"                    A ' m B                                           i e : s                   ",
"                  C D e n                                             E F ' -                   ",
"                  G ' k H                                               I 9 / s                 ",
"              J 1 K | - L M M                                       M M N k | < ! O             ",
"          % P k ' ' ' ' Q M M M                                 M M M R S ' ' ' ' T U V         ",
"      o O 9 W X ' ' ' ' Y Z `  .M     M M M M M M M M M M M   M M ..+.@.#.' ' ' ' $.] _ %.      ",
"      &.e ' *.=.' ' ' ' -.;.>.,.'.M M M M M M M M M M M M M M M ).!.;.;.~.' ' ' ' {.].' > ^.    ",
"      - ' ' /.=.' ' ' ' -.;.;.(._.:.<.[.}.M M M M M M |.1.2.3.4.5.6.;.;.~.' ' ' ' 7.8.' ' 9.    ",
"      - ' ' /.=.' ' ' ' -.;.0.a.b.;.;.;.c.d.e.M M M f.g.h.;.;.;.i.j.k.;.~.' ' ' ' 7.l.' ' 9.    ",
"      - ' ' /.=.' ' ' ' m.n.o.;.;.;.;.;.;.;.p.q.M r.s.;.;.;.;.;.;.h.t.u.v.' ' ' ' 7.l.' ' 9.    ",
"      - ' ' /.=.' ' ' ' w.i.;.x.y.z.A.B.C.;.;.D.E.F.;.G.H.I.z.J.K.;.;.L.M.N.' ' ' 7.l.' ' 9.    ",
"      - ' ' O.=.' ' ' P.Q.R.S.T.U.U.U.U.V.W.;.;.X.;.Y.Z.U.U.U.U.`. +.+++@+#+' ' ' 7.$+' ' 9.    ",
"      - ' ' %+&+' ' *+=+-+;+>+,+'+)+!+~+{+]+^+;.;./+(+U._+:+<+[+}+U.|+;.1+2+3+' ' 4+5+' ' 9.    ",
"      - ' ' B 6+' ' 7+8+9+0+a+b+v c+<+d+e+{+f+;.;.J.U.g+h+i+j+k+l+m+T.n+o+p+q+' ' T i ' ' 9.    ",
"      - ' ' B k ' r+s+t+u+U.v+v v w+x+y+)+z+A+B+R.C+D+E+v F+G+H+I+J+,+B.;.1.K+L+' T i ' ' 9.    ",
"      - ' ' B k ' M+R g.N+U.O+v v v P+}+Q+<+>+R+S+T+U+V+v v V+W+X+v Y+Z+;.`+M  @' T i ' ' 9.    ",
"      - ' ' B k .@+@R @@#@U.$@v v v v %@v &@A+*@R.=@-@;@v v v >@,@%@'@)@;.!@M ~@{@T i ' ' 9.    ",
"      ]@' ' B k ^@M M /@(@0+_@V+v v v v :@W+z.;.;.<@,+[@v v v v v }@|@1@;.2@M 3@4@T i ' , 5@    ",
"      6@7@) B k 8@M M 9@;.0@a@b@c@v v ;@d@e@f@;.;.g@h@i@F+v v v j@}+<@;.k@l@M M m@T ] 9 J b     ",
"          n@V k o@M M p@;.;.q@r@s@t@u@v@w@x@;.;.;.;.f@y@z@A@B@C@D@|+E@;.@@F@M M G@T U H@        ",
"              n I@M M J@K@;.;.L@M@A.I.N@O@h.h.h.h.h.h.P@Q@R@S@Z+T@;.;.;.U@M M M V@W@            ",
"                M M M M X@;.;.;.;.;.h.h.Y@;.;.;.;.;.;.;.;.h.h.;.;.;.;.Z@`@M M M M               ",
"                M M M M  #.#;.;.;.h.;.;.;.;.;.;.;.;.;.;.;.;.;.h.;.;.+#@#M M M M M               ",
"                M M M M M ##k.>.h.;.;.;.;.;.;.;.;.;.;.;.;.;.;.;.h.o+$#M M M M M M               ",
"                M M M M M M |.%#;.;.;.;.;.;.;.;.;.;.;.;.;.;.;.;.;.&#M M M M M M M               ",
"                  M M M M M *#=#;.;.;.;.;.;.;.;.;.;.;.;.;.;.;.;.;.-#;#M M M M M                 ",
"                  M M M M M >#;.;.;.;.;.;.;.;.;.;.;.;.;.;.;.;.;.;.;.,#M M M M M                 ",
"                  M M M M M n.;.;.;.;.;.;.;.;.;.;.;.;.;.R.9+n+'#)#;.!#M M M M M                 ",
"                    M M M M ~#;.;.;.R.*@g@Y.{#N@]#^#/#(#_#:#`.<#[#;.i.M M M M                   ",
"                    M M M M n.;.;.}#|#1#`.U.U.U.U.U.U.U.U.U.2#[#;.;.p.M M M M                   ",
"                      M M M 3#;.;.4#5#U.U.U.U.U.U.U.U.U.a+6#7#;.;.;.8#M M M                     ",
"                        M M 9#0#;.;.a#b#c#U.U.U.U.U.d#e#f#>.;.;.;.-#g#M M                       ",
"                          M M h#h.;.;.i#j#5#k#l#m#n#o#7#;.;.;.;.;.p#M M                         ",
"                            M F@q#;.;.;.;.;.r#s#s.;.;.;.;.;.;.;.t#u#M                           ",
"                              M v#w#X.;.;.;.;.;.;.;.;.;.;.;.i#x#y#M                             ",
"                                  M z#A#-#;.;.;.;.;.;.;.B#C#D#E#                                ",
"                                        F#G#F.H#I#H#H#J#K#                                      ",
"                                                                                                ",
"                                                                                                "};
