/* XPM */
static char * AudMonkeyLogoAlpha_xpm[] = {
"48 48 426 2",
"  	c None",
". 	c #000056",
"+ 	c #00007E",
"@ 	c #00008F",
"# 	c #00008D",
"$ 	c #00005D",
"% 	c #000096",
"& 	c #0000BF",
"* 	c #0000D5",
"= 	c #0000FB",
"- 	c #0000FF",
"; 	c #0000FD",
"> 	c #0000DB",
", 	c #0000C3",
"' 	c #0000A8",
") 	c #000065",
"! 	c #00009B",
"~ 	c #0000D8",
"{ 	c #0000FC",
"] 	c #0000D6",
"^ 	c #0000CE",
"/ 	c #0000CC",
"( 	c #0000F6",
"_ 	c #0000EF",
": 	c #0000B8",
"< 	c #000071",
"[ 	c #000075",
"} 	c #0000C8",
"| 	c #0000F7",
"1 	c #0000C1",
"2 	c #00009E",
"3 	c #00005B",
"4 	c #000047",
"5 	c #00008B",
"6 	c #0000B6",
"7 	c #0000DE",
"8 	c #0000EE",
"9 	c #000083",
"0 	c #0000E3",
"a 	c #0000C6",
"b 	c #000076",
"c 	c #0000A0",
"d 	c #0000E6",
"e 	c #0000B7",
"f 	c #000084",
"g 	c #0000E5",
"h 	c #000097",
"i 	c #00006A",
"j 	c #0000BA",
"k 	c #000072",
"l 	c #0000E2",
"m 	c #00008C",
"n 	c #000098",
"o 	c #0000B9",
"p 	c #0000C9",
"q 	c #0000E4",
"r 	c #00007C",
"s 	c #000093",
"t 	c #0000F9",
"u 	c #0000FE",
"v 	c #00009A",
"w 	c #0000A3",
"x 	c #0000EC",
"y 	c #000086",
"z 	c #000099",
"A 	c #0000E9",
"B 	c #0000BB",
"C 	c #0000B2",
"D 	c #00005A",
"E 	c #0000C4",
"F 	c #0100BD",
"G 	c #0302B8",
"H 	c #0802B0",
"I 	c #1D0C5C",
"J 	c #562000",
"K 	c #552100",
"L 	c #180967",
"M 	c #0502A0",
"N 	c #0201A4",
"O 	c #0000A9",
"P 	c #000091",
"Q 	c #00005C",
"R 	c #00005F",
"S 	c #0000BC",
"T 	c #27105B",
"U 	c #552200",
"V 	c #542300",
"W 	c #562100",
"X 	c #210D6F",
"Y 	c #000062",
"Z 	c #000087",
"` 	c #130794",
" .	c #6E4C90",
"..	c #D48F60",
"+.	c #8A4F28",
"@.	c #552300",
"#.	c #542200",
"$.	c #582402",
"%.	c #9F6138",
"&.	c #DE9767",
"*.	c #5B3F9C",
"=.	c #100790",
"-.	c #00009C",
";.	c #0000DA",
">.	c #000080",
",.	c #0000A4",
"'.	c #1C0C5A",
").	c #1B0B80",
"!.	c #765396",
"~.	c #FFB380",
"{.	c #A8693F",
"].	c #542000",
"^.	c #572402",
"/.	c #CB8659",
"(.	c #6245A1",
"_.	c #210D6C",
":.	c #0B0489",
"<.	c #0000BE",
"[.	c #2F133D",
"}.	c #E49C6C",
"|.	c #622C0A",
"1.	c #6F3814",
"2.	c #7C431E",
"3.	c #6C3612",
"4.	c #562300",
"5.	c #66310D",
"6.	c #804721",
"7.	c #844A23",
"8.	c #6A3410",
"9.	c #E79F6E",
"0.	c #220E6B",
"a.	c #210D60",
"b.	c #341434",
"c.	c #C88357",
"d.	c #AC6D42",
"e.	c #EEA473",
"f.	c #9A5D34",
"g.	c #562301",
"h.	c #733C17",
"i.	c #D18C5D",
"j.	c #FEB27F",
"k.	c #DA9364",
"l.	c #854A25",
"m.	c #C88457",
"n.	c #281152",
"o.	c #AF6F45",
"p.	c #DF9867",
"q.	c #CE895B",
"r.	c #5B2705",
"s.	c #8F532C",
"t.	c #FCB07D",
"u.	c #A3643B",
"v.	c #AD6D42",
"w.	c #2A114F",
"x.	c #321536",
"y.	c #6B3F51",
"z.	c #DD9666",
"A.	c #FFBD90",
"B.	c #FFD8BD",
"C.	c #FFE4D1",
"D.	c #FFE2CE",
"E.	c #FFD1B2",
"F.	c #FFB685",
"G.	c #7E461F",
"H.	c #FCB17E",
"I.	c #FFB482",
"J.	c #FFCDAC",
"K.	c #FFE0CC",
"L.	c #FFE4D2",
"M.	c #FFDAC2",
"N.	c #FFC096",
"O.	c #93572F",
"P.	c #5D365C",
"Q.	c #270F56",
"R.	c #2A1144",
"S.	c #190AB4",
"T.	c #AA6B41",
"U.	c #FFD5B8",
"V.	c #FFFDFC",
"W.	c #FFFFFF",
"X.	c #FFF8F3",
"Y.	c #FFC49D",
"Z.	c #F1A775",
"`.	c #FFBE93",
" +	c #FFF3EB",
".+	c #FFFEFE",
"++	c #FFDDC6",
"@+	c #FFB481",
"#+	c #F5AA78",
"$+	c #642F0D",
"%+	c #190AB3",
"&+	c #190A6C",
"*+	c #0D0472",
"=+	c #1A0A83",
"-+	c #0703EA",
";+	c #592714",
">+	c #F4AA78",
",+	c #FFD0B0",
"'+	c #FCFCFC",
")+	c #989898",
"!+	c #535353",
"~+	c #505050",
"{+	c #909090",
"]+	c #FAFAFA",
"^+	c #FFFBF8",
"/+	c #FFBE92",
"(+	c #FFB888",
"_+	c #FFF6F0",
":+	c #D0D0D0",
"<+	c #686868",
"[+	c #464646",
"}+	c #6C6C6C",
"|+	c #D9D9D9",
"1+	c #FFDAC1",
"2+	c #AC6C41",
"3+	c #4F2011",
"4+	c #0803E8",
"5+	c #1E0C74",
"6+	c #02029A",
"7+	c #0803A9",
"8+	c #31146B",
"9+	c #90542C",
"0+	c #FFB583",
"a+	c #FFF9F5",
"b+	c #FDFDFD",
"c+	c #474747",
"d+	c #000000",
"e+	c #777777",
"f+	c #353535",
"g+	c #131313",
"h+	c #3A3A3A",
"i+	c #F9F9F9",
"j+	c #FFE4D3",
"k+	c #ACACAC",
"l+	c #050505",
"m+	c #1E1E1E",
"n+	c #8D8D8D",
"o+	c #0B0B0B",
"p+	c #111111",
"q+	c #BDBDBD",
"r+	c #FFBB8D",
"s+	c #E69E6D",
"t+	c #341562",
"u+	c #0503A5",
"v+	c #0C05DA",
"w+	c #532105",
"x+	c #BA784C",
"y+	c #FFC6A0",
"z+	c #FEFEFE",
"A+	c #3E3E3E",
"B+	c #878787",
"C+	c #FFFBF9",
"D+	c #FFF1E8",
"E+	c #F2F2F2",
"F+	c #121212",
"G+	c #0E0E0E",
"H+	c #C0C0C0",
"I+	c #ABABAB",
"J+	c #FBFBFB",
"K+	c #FFD1B1",
"L+	c #542104",
"M+	c #0B04DE",
"N+	c #2F1372",
"O+	c #CE8A5B",
"P+	c #FFCDAB",
"Q+	c #1B1B1B",
"R+	c #CDCDCD",
"S+	c #252525",
"T+	c #3F3F3F",
"U+	c #FFB787",
"V+	c #FFF8F4",
"W+	c #7E7E7E",
"X+	c #D1D1D1",
"Y+	c #FFD8BE",
"Z+	c #7A421C",
"`+	c #2C127B",
" @	c #4C1E1C",
".@	c #D69061",
"+@	c #FFC59F",
"@@	c #575757",
"#@	c #C4C4C4",
"$@	c #D8D8D8",
"%@	c #824822",
"&@	c #491D24",
"*@	c #0000B0",
"=@	c #0D05D9",
"-@	c #CA8758",
";@	c #B1B1B1",
">@	c #A0A0A0",
",@	c #FFE3D1",
"'@	c #FFD9BF",
")@	c #242424",
"!@	c #343434",
"~@	c #FEFCFA",
"{@	c #FFBA8C",
"]@	c #743C17",
"^@	c #0A04E1",
"/@	c #0000A7",
"(@	c #00009D",
"_@	c #0000E1",
":@	c #1D0BA9",
"<@	c #B17145",
"[@	c #FFCEAD",
"}@	c #747474",
"|@	c #010101",
"1@	c #646464",
"2@	c #FFFAF6",
"3@	c #FFF5EE",
"4@	c #C9C9C9",
"5@	c #181818",
"6@	c #202020",
"7@	c #D6D6D6",
"8@	c #FBB07D",
"9@	c #5C2906",
"0@	c #1A0AB2",
"a@	c #00005E",
"b@	c #27108A",
"c@	c #FFD2B4",
"d@	c #FFFCFB",
"e@	c #767676",
"f@	c #FFF5EF",
"g@	c #FFC29A",
"h@	c #FFF0E7",
"i@	c #EDEDED",
"j@	c #8C8C8C",
"k@	c #6D6D6D",
"l@	c #919191",
"m@	c #F2F1F0",
"n@	c #D58F60",
"o@	c #250F91",
"p@	c #000063",
"q@	c #000094",
"r@	c #321350",
"s@	c #FFDFC9",
"t@	c #FFCEAE",
"u@	c #FFB483",
"v@	c #FFB37F",
"w@	c #FECAA7",
"x@	c #FFDEC7",
"y@	c #FFE2CF",
"z@	c #FFD7BC",
"A@	c #8E532B",
"B@	c #2F1454",
"C@	c #000090",
"D@	c #562200",
"E@	c #91552D",
"F@	c #FEB27E",
"G@	c #FFB27F",
"H@	c #DB9465",
"I@	c #C07D50",
"J@	c #E39B6C",
"K@	c #723A16",
"L@	c #A6663B",
"M@	c #A5663B",
"N@	c #EAA170",
"O@	c #FAAD7C",
"P@	c #642F0C",
"Q@	c #894D26",
"R@	c #A3643A",
"S@	c #FFBB8E",
"T@	c #FFC49C",
"U@	c #EDAF85",
"V@	c #C78355",
"W@	c #542100",
"X@	c #BC794D",
"Y@	c #FFB684",
"Z@	c #FFBD91",
"`@	c #FFC59E",
" #	c #FFCCAA",
".#	c #FFD6BB",
"+#	c #FFDEC8",
"@#	c #FFE6D5",
"##	c #FFEDE2",
"$#	c #FFFEFD",
"%#	c #DAC9BE",
"&#	c #F0AB7C",
"*#	c #D79162",
"=#	c #DCB093",
"-#	c #FFF3EC",
";#	c #FFFCFA",
">#	c #D4C0B4",
",#	c #F0AB7D",
"'#	c #571F00",
")#	c #F7AE7D",
"!#	c #D4C2B5",
"~#	c #F6F5F4",
"{#	c #D1B39E",
"]#	c #F8AF7D",
"^#	c #A4643B",
"/#	c #572200",
"(#	c #EBA270",
"_#	c #F3AC7D",
":#	c #D0B9AA",
"<#	c #DACDC5",
"[#	c #DCA784",
"}#	c #874D26",
"|#	c #D5A687",
"1#	c #D7C3B5",
"2#	c #DBD5D2",
"3#	c #E7E6E5",
"4#	c #D9D1CD",
"5#	c #D7C1B2",
"6#	c #D5A88A",
"7#	c #A26439",
"8#	c #A6673C",
"9#	c #EFA878",
"0#	c #BF7D4F",
"a#	c #F6AB79",
"b#	c #FBAF7D",
"c#	c #AF6E43",
"d#	c #592402",
"e#	c #79421C",
"f#	c #C17E50",
"g#	c #F8AB7A",
"h#	c #FBB07E",
"i#	c #CE8859",
"j#	c #8C502A",
"k#	c #964E2E",
"l#	c #B57548",
"m#	c #CA8558",
"n#	c #D68F5F",
"o#	c #DB9464",
"p#	c #D68F61",
"q#	c #D18A5B",
"r#	c #BD7A4E",
"s#	c #A86840",
"                                                                                                ",
"                                          . + @ # + $                                           ",
"                                    % & * = - - - - ; > , ' )                                   ",
"                                ! ~ - - - { ] ^ / ^ ( - - - _ : <                               ",
"                            [ } - - | 1 2 3         4 5 6 7 - - 8 2                             ",
"                          9 0 - - a b                       c d - - e                           ",
"                        f g - 8 h                             i j - - 1                         ",
"                      k 0 - l m                                   n | - o                       ",
"                      p - q r                                       s t u v                     ",
"                    w - x y                                           z u 8 [                   ",
"                  i A ; s                                               6 - B                   ",
"                  C - B                                                 D 7 ( [                 ",
"              % E F G H I J                                           K L M N O E P             ",
"          Q R S - - - - T U U V                                   W U U X - - - - C Y           ",
"        # 7 Z ` - - - -  ...+.U U       @.#.U U U U U U K       U $.%.&.*.- - - - =.-.;.>.      ",
"      ,.u - '.).- - - - !.~.~.{.U ].U U U U U U U U U U U U U U ^./.~.~.(.- - - - _.:.- = !     ",
"      <.- - [.).- - - - !.~.~.}.|.1.2.3.4.U U U U U U U 5.6.7.8.3.9.~.~.(.- - - - 0.a.- - 6     ",
"      <.- - b.).- - - - !.~.c.d.e.~.~.~.9.f.g.U U U h.i.j.~.~.~.k.l.m.~.(.- - - - 0.n.- - 6     ",
"      <.- - b.).- - - - !.o.p.~.~.~.~.~.~.~.q.r.U s.t.~.~.~.~.~.~.j.u.v.(.- - - - 0.w.- - 6     ",
"      <.- - x.).- - - - y.z.~.A.B.C.D.E.F.~.~.m.G.H.~.I.J.K.L.M.N.~.~.O.P.- - - - 0.Q.- - 6     ",
"      <.- - R.).- - - S.T.~.U.V.W.W.W.W.X.Y.~.~.Z.~.`. +W.W.W.W..+++@+#+$+%+- - - 0.&+- - 6     ",
"      <.- - *+=+- - -+;+>+,+W.'+)+!+~+{+]+^+/+~.~.(+_+W.:+<+[+}+|+W.1+~.2+3+4+- - 5+6+- - 6     ",
"      <.- - Z 7+- - 8+9+0+a+b+c+d+e+f+g+h+i+j+~.~.1+W.k+l+m+n+o+p+q+V.r+s+U t+- - u+-.- - 6     ",
"      <.- - Z S - v+w+x+y+W.)+d+d+[+c+z+A+B+C+~.~.D+E+F+d+G+!+H+I+m+J+K+~.5.L+M+- C -.- - 6     ",
"      <.- - Z S - N+U O+P+W.~+d+d+d+Q+R+S+T+W.U+~.V+q+d+d+d+d+{+W+d+X+Y+~.Z+U `+- C -.- - 6     ",
"      <.- - Z S -  @U .@+@W.@@d+d+d+d+d+d+[+C+~.~.D+#@d+d+d+d+d+d+d+$@,+~.%@U &@- C -.- - 6     ",
"      *@- - Z S =@U U -@I.X.;@d+d+d+d+d+d+>@,@~.~.'@i+)@d+d+d+d+d+!@~@{@~.]@U U ^@C -.- - /@    ",
"        (@_@Z S :@U U <@~.[@W.}@|@d+d+d+1@2@A.~.~.U+3@4@5@d+d+d+6@7@Y+~.8@9@U U 0@C -.7 (@      ",
"          Q a@S b@U U 7.~.~.c@d@#@e@}@q+f@g@~.~.~.~.A.h@i@j@k@l@m@1+~.~.n@U U U o@C p@          ",
"              q@r@U U ^.9.~.~.r+U.D.s@t@u@v@j.j.j.v@j.@+w@x@y@z@/+~.~.~.A@U U U B@C@            ",
"                D@U U U E@~.~.~.~.~.j.F@G@~.~.~.~.~.~.~.j.F@j.~.~.~.~.H@^.U U U #.              ",
"                #.U U U U I@~.~.~.F@G@~.~.~.~.~.~.~.~.~.~.~.j.F@~.~.Z.1.U U U U D@              ",
"                #.U U U U ^.x+j.F@~.~.~.~.~.~.~.~.~.~.~.~.~.~.~.F@J@K@U U U U U #.              ",
"                  U U U U U U L@~.~.~.~.~.~.~.~.~.~.~.~.~.~.~.~.~.M@U U U U U U                 ",
"                  U U U U U $.N@~.~.~.~.~.~.~.~.~.~.~.~.~.~.~.~.~.O@P@U U U U U                 ",
"                  D@U U U U Q@~.~.~.~.~.~.~.~.~.~.~.~.~.~.~.~.~.~.~.R@U U U U 4.                ",
"                    K U U U 2+~.~.~.~.~.~.~.~.~.~.~.~.~.~.I.S@T@U@~.V@U U U U                   ",
"                    W@U U U X@~.~.~.~.~.Y@Z@`@ #.#+#@###3@$#W.%#&#~.*#U U U K                   ",
"                      U U U 2+~.~.=#-#;#W.W.W.W.W.W.W.W.W.W.>#,#~.~.V@U U U                     ",
"                      '#U U Q@~.~.)#!#W.W.W.W.W.W.W.W.W.~#{#]#~.~.~.^#U U /#                    ",
"                        W@U $.(#~.~._#:#b+W.W.W.W.W.W.<#[#~.~.~.~.O@P@U #.                      ",
"                          @.U }#~.~.~.j.|#1#2#3#4#5#6#]#~.~.~.~.~.7#U K                         ",
"                            /#@.8#~.~.~.~.~.j.9#~.~.~.~.~.~.~.~.0#g.                            ",
"                                @.f.a#~.~.~.~.~.~.~.~.~.~.~.b#c#d#                              ",
"                                    e#f#g#~.~.~.~.~.~.~.h#i#j#                                  ",
"                                        k#l#m#n#o#p#q#r#s#                                      ",
"                                                                                                ",
"                                                                                                "};
