/* XPM */
static const char * const AudMonkeyLogo48x48_xpm[] = {
"48 48 361 2",
"  	c None",
". 	c #000000",
"+ 	c #00008A",
"@ 	c #0000D1",
"# 	c #0000E0",
"$ 	c #0000E6",
"% 	c #0000F7",
"& 	c #0000FF",
"* 	c #0000F8",
"= 	c #0000E7",
"- 	c #0000E1",
"; 	c #0000D6",
"> 	c #00009F",
", 	c #0000DC",
"' 	c #0000FA",
") 	c #0000E9",
"! 	c #0000C9",
"~ 	c #0000D3",
"{ 	c #0000FB",
"] 	c #0000EC",
"^ 	c #0000DB",
"/ 	c #0000BC",
"( 	c #00006C",
"_ 	c #000028",
": 	c #0000B7",
"< 	c #0000E2",
"[ 	c #0000FC",
"} 	c #0000EB",
"| 	c #0000B0",
"1 	c #000082",
"2 	c #0000E8",
"3 	c #0000EE",
"4 	c #0000BF",
"5 	c #000093",
"6 	c #0000D9",
"7 	c #0000CC",
"8 	c #00007C",
"9 	c #0000FE",
"0 	c #0000D7",
"a 	c #0000A3",
"b 	c #0000C5",
"c 	c #0000BE",
"d 	c #0000D8",
"e 	c #0000C2",
"f 	c #0000C3",
"g 	c #0000B5",
"h 	c #0000B8",
"i 	c #0000F1",
"j 	c #0000EF",
"k 	c #0000CD",
"l 	c #752D00",
"m 	c #913900",
"n 	c #983C00",
"o 	c #9E3F00",
"p 	c #953A00",
"q 	c #9A3D00",
"r 	c #9C3E00",
"s 	c #973C00",
"t 	c #7B2F00",
"u 	c #0000E5",
"v 	c #0000D2",
"w 	c #0000D0",
"x 	c #953B00",
"y 	c #9D3E00",
"z 	c #AA4400",
"A 	c #A34100",
"B 	c #823200",
"C 	c #000090",
"D 	c #0000F4",
"E 	c #000081",
"F 	c #0000B1",
"G 	c #0000D5",
"H 	c #0000DA",
"I 	c #943A00",
"J 	c #A64200",
"K 	c #9B3E00",
"L 	c #853400",
"M 	c #0000CF",
"N 	c #000080",
"O 	c #0601D4",
"P 	c #903900",
"Q 	c #0000FD",
"R 	c #351100",
"S 	c #5F22C8",
"T 	c #6F2AAA",
"U 	c #5920BB",
"V 	c #A44100",
"W 	c #B25322",
"X 	c #D78658",
"Y 	c #EA9C6C",
"Z 	c #F1A473",
"` 	c #E89A6A",
" .	c #D38154",
"..	c #AF4D18",
"+.	c #C46E41",
"@.	c #E49566",
"#.	c #CB774A",
"$.	c #8E3700",
"%.	c #963B00",
"&.	c #0000F0",
"*.	c #2308D7",
"=.	c #5F23CB",
"-.	c #7C3FAC",
";.	c #6626AA",
">.	c #CE7B4E",
",.	c #FCB07D",
"'.	c #FFB380",
").	c #F9AC7A",
"!.	c #C67043",
"~.	c #AF4E19",
"{.	c #F0A372",
"].	c #B75B2C",
"^.	c #9F3F00",
"/.	c #A6562C",
"(.	c #602399",
"_.	c #501CCC",
":.	c #9063D3",
"<.	c #A975B9",
"[.	c #873485",
"}.	c #D28053",
"|.	c #FFB685",
"1.	c #FFC5A4",
"2.	c #FFC29F",
"3.	c #FEB27F",
"4.	c #C97547",
"5.	c #AF4D17",
"6.	c #FFC09A",
"7.	c #FFB88B",
"8.	c #F7AA79",
"9.	c #B65A2B",
"0.	c #A74300",
"a.	c #300EE9",
"b.	c #E19E70",
"c.	c #943B6D",
"d.	c #9265D4",
"e.	c #511DD4",
"f.	c #C1693C",
"g.	c #FFBB91",
"h.	c #FFE7DB",
"i.	c #FFFEFD",
"j.	c #FFFFFF",
"k.	c #FFFAF7",
"l.	c #FFDBC8",
"m.	c #FFB482",
"n.	c #FFD4BE",
"o.	c #FFF8F4",
"p.	c #FFEBE1",
"q.	c #FFC09B",
"r.	c #EDA06F",
"s.	c #81329F",
"t.	c #963B69",
"u.	c #8E387C",
"v.	c #FFBE96",
"w.	c #FFF7F4",
"x.	c #FAFAFA",
"y.	c #E2E2E2",
"z.	c #E1E1E1",
"A.	c #F9F9F9",
"B.	c #FFECE3",
"C.	c #FFB381",
"D.	c #FFE3D6",
"E.	c #ECECEC",
"F.	c #DBDBDB",
"G.	c #EEEEEE",
"H.	c #FFFCFB",
"I.	c #FFC6A5",
"J.	c #A44111",
"K.	c #0D02F6",
"L.	c #2D0CED",
"M.	c #A94400",
"N.	c #C0683B",
"O.	c #FFEDE5",
"P.	c #D4D4D4",
"Q.	c #9B9B9B",
"R.	c #3A3A3A",
"S.	c #3D3D3D",
"T.	c #CECECE",
"U.	c #FFD8C5",
"V.	c #FFCDB1",
"W.	c #F4F4F4",
"X.	c #8A8A8A",
"Y.	c #AAAAAA",
"Z.	c #383838",
"`.	c #939393",
" +	c #FFF5F1",
".+	c #FFB481",
"++	c #EB9E6E",
"@+	c #5A20D3",
"#+	c #6124CC",
"$+	c #DA8A5C",
"%+	c #FFC099",
"&+	c #E7E7E7",
"*+	c #161616",
"=+	c #4D4D4D",
"-+	c #DFDFDF",
";+	c #FFF7F3",
">+	c #FFEDE4",
",+	c #878787",
"'+	c #767676",
")+	c #CACACA",
"!+	c #1D1D1D",
"~+	c #979797",
"{+	c #FFCDB3",
"]+	c #AD490D",
"^+	c #712BB1",
"/+	c #722BAC",
"(+	c #FFD3BC",
"_+	c #B8B8B8",
":+	c #7B7B7B",
"<+	c #959595",
"[+	c #FFB483",
"}+	c #FFFAF8",
"|+	c #EAEAEA",
"1+	c #B3B3B3",
"2+	c #F8F8F8",
"3+	c #F1F1F1",
"4+	c #FFDAC7",
"5+	c #BF673A",
"6+	c #8333A9",
"7+	c #7B30AA",
"8+	c #F1A474",
"9+	c #FFD2BA",
"0+	c #A7A7A7",
"a+	c #E6E6E6",
"b+	c #505050",
"c+	c #FFF9F7",
"d+	c #A2A2A2",
"e+	c #BEBEBE",
"f+	c #FFD9C6",
"g+	c #C26A3C",
"h+	c #963B6A",
"i+	c #3510D8",
"j+	c #8E60D3",
"k+	c #742CAA",
"l+	c #F0A373",
"m+	c #B4B4B4",
"n+	c #A5A5A5",
"o+	c #FFF5F0",
"p+	c #FFECE2",
"q+	c #252525",
"r+	c #F6F6F6",
"s+	c #FFCCAF",
"t+	c #712BB0",
"u+	c #E19D6F",
"v+	c #772D94",
"w+	c #7637AB",
"x+	c #6827C5",
"y+	c #E59667",
"z+	c #FFEAE0",
"A+	c #F2F2F2",
"B+	c #454545",
"C+	c #FFD6C0",
"D+	c #FFC9AB",
"E+	c #A8A8A8",
"F+	c #B5B5B5",
"G+	c #FFF4EF",
"H+	c #BA5F30",
"I+	c #5C22CF",
"J+	c #9F4C1F",
"K+	c #0000AD",
"L+	c #2207D7",
"M+	c #3D14C9",
"N+	c #3B13E2",
"O+	c #D58456",
"P+	c #FFF6F2",
"Q+	c #EBEBEB",
"R+	c #898989",
"S+	c #7E7E7E",
"T+	c #FFE6D9",
"U+	c #FFDDCC",
"V+	c #FDFDFD",
"W+	c #B7B7B7",
"X+	c #424242",
"Y+	c #484848",
"Z+	c #BDBDBD",
"`+	c #FFF9F6",
" @	c #F9AD7B",
".@	c #A84300",
"+@	c #2108F1",
"@@	c #622400",
"#@	c #993C54",
"$@	c #B55828",
"%@	c #FFB88A",
"&@	c #FFE2D4",
"*@	c #FFFBF9",
"=@	c #FCFCFC",
"-@	c #FFD6C1",
";@	c #FFCFB5",
">@	c #FFF3ED",
",@	c #FFFDFC",
"'@	c #FFBD95",
")@	c #E19263",
"!@	c #8F387B",
"~@	c #0000B6",
"{@	c #8C3745",
"]@	c #E59768",
"^@	c #FFBE97",
"/@	c #FFBA8D",
"(@	c #FFB788",
"_@	c #FEB17F",
":@	c #BA5F31",
"<@	c #80314E",
"[@	c #0000B4",
"}@	c #A24100",
"|@	c #FAAD7B",
"1@	c #D9895B",
"2@	c #A04000",
"3@	c #8B3700",
"4@	c #C36C40",
"5@	c #E29365",
"6@	c #8B3600",
"7@	c #EEA170",
"8@	c #D17F52",
"9@	c #9B3D00",
"0@	c #D17E51",
"a@	c #D07D50",
"b@	c #7F3100",
"c@	c #F0A272",
"d@	c #AE4B13",
"e@	c #762E00",
"f@	c #B95D2F",
"g@	c #CA7649",
"h@	c #A44200",
"i@	c #CC784A",
"j@	c #F2A979",
"k@	c #B85C2D",
"l@	c #F8AE7C",
"m@	c #F0A878",
"n@	c #F4AB7B",
"o@	c #EBA576",
"p@	c #FDB27F",
"q@	c #FDB17F",
"r@	c #F5AC7B",
"s@	c #F4AB7A",
"t@	c #C97548",
"u@	c #742C00",
"v@	c #EFA271",
"w@	c #AD4A0F",
"x@	c #722B00",
"y@	c #FDB17E",
"z@	c #CD794C",
"A@	c #843300",
"B@	c #DB8B5C",
"C@	c #893600",
"D@	c #993D00",
"E@	c #C36C3F",
"F@	c #F5A877",
"G@	c #CC794C",
"H@	c #AC4709",
"I@	c #EA9D6D",
"J@	c #EEA070",
"K@	c #D48356",
"L@	c #B04E1A",
"M@	c #B65827",
"N@	c #BF6639",
"O@	c #B95E2F",
"P@	c #AA4401",
"Q@	c #973B00",
"R@	c #8A3600",
"S@	c #933A00",
"T@	c #963C00",
"                                                                                                ",
"                                                                                                ",
"                                            . . . .                                             ",
"                                    + @ # $ % & & * = - ; >                                     ",
"                                > , ' & & & & & & & & & & & ) !                                 ",
"                              ~ { & & ] ^ / ( . . _ : @ < [ & & } |                             ",
"                          1 2 & & 3 4                     5 6 ' & { 7                           ",
"                        8 = & 9 0                             a 2 & & b                         ",
"                        ] & ' c                                   d & & 7                       ",
"                      d & ' e                                       f & [ g                     ",
"                    h & [ /                                           ~ & i 8                   ",
"                    j & k             l m n o p p q r s t               u & v                   ",
"                  w & $           x y z z z z z z z z z z A q B         C D % E                 ",
"              F G H = :       I J z z z z z z z z z z z z z z z K L       @ = M ~               ",
"            N O & & & G     o z z z z z z z z z z z z z z z z z z J P     % & & Q R             ",
"          ^ S T & & & U I V z W X Y Z `  ...z z z z z +.@.Z Z ` #.z z $.z % & & Q %.&./         ",
"        *.& =.-.& & & ;.V z >.,.'.'.'.'.'.).!.z z ~.Y '.'.'.'.'.'.{.].z ^.% & & Q /.& & (.      ",
"      z _.& :.<.& & & [.z }.'.'.|.1.2.'.'.'.3.4.5.{.'.'.'.6.1.7.'.'.8.9.0.a.& & Q b.& & c.      ",
"      z _.& d.<.& & e.z f.'.g.h.i.j.j.k.l.m.'.,.Y '.'.n.o.j.j.j.p.q.'.r.z s.& & Q b.& & t.z     ",
"    z z _.& d.<.& & u.z {.v.w.j.x.y.z.A.j.B.C.'.'.'.D.j.j.E.F.G.j.H.I.'.#.J.K.& Q b.& & t.z     ",
"    z z _.& d.<.& L.M.N.'.O.j.P.Q.R.. S.T.j.U.'.'.V.j.W.X.Y.Z.. `.x. +.+++z @+& Q b.& & t.z     ",
"    z z _.& d.<.& #+z $+%+j.&+*+y.=+. . . -+;+'.'.>+j.,+'+)+!+. . ~+j.{+3.]+^+& Q b.& & t.z     ",
"      z _.& d.<.& /+z ` (+j._+A.:+. . . . <+j.[+'.}+|+1+2+. . . . . 3+4+'.5+6+& Q b.& & t.z     ",
"      z _.& d.<.& 7+z 8+9+j.0+a+b+. . . . :+j.m.'.c+F.d+e+. . . . . &+f+'.g+6+& Q b.& & h+z     ",
"        i+& j+<.& k+z l+v.j.m+. . . . . . n+o+'.'.p+3+. . . . . . q+r+s+'.N.t+& Q u+& & v+      ",
"        6 & =.w+& x+z y+'.z+A+B+. . . . Z.E.C+'.'.D+j.E+. . . . . F+G+'.'.H+I+& Q J+& ' K+      ",
"          v L+M+& N+z O+'.g.P+Q+R+. . S+a+T+'.'.'.'.U+V+W+X+. Y+Z+`+q.'. @.@+@& Q @@u K+        ",
"              G & & #@$@'.'.%@&@*@V+=@;+-@'.'.'.'.'.'.;@>@j.A.,@h.'@'.'.)@!@& & Q .             ",
"                ~@~@{@z ]@'.'.'.'.^@/@'.'.'.'.'.'.'.'.'.'.(@q.C.'.'.'._@:@<@~@~@[@              ",
"                      }@$@|@'.'.'.'.'.'.'.'.'.'.'.'.'.'.'.'.'.'.'.'.'.1@2@                      ",
"                      3@M.4@,.'.'.'.'.'.'.'.'.'.'.'.'.'.'.'.'.'.'.'.5@z 6@                      ",
"                        x z :@7@'.'.'.'.'.'.'.'.'.'.'.'.'.'.'.'.|@8@z o                         ",
"                          9@z z 0@'.'.'.'.'.'.'.'.'.'.'.'.'.'.'.a@z z o                         ",
"                          b@z z c@'.'.'.'.'.'.'.'.'.'.'.'.'.'.'.|@d@z %.                        ",
"                          e@z f@'.'.'.'.'.'.'.'.'.'.'.'.'.'.'.'.'.g@z x                         ",
"                            h@i@'.'.'.'.'.'.'.'.'.'.'.'.'.'.'.'.'.X z 9@                        ",
"                            y #.'.'.'.'.'.'.'.'.'.'.'.'.'.j@'.'.'.X z q                         ",
"                            9@k@'.'.'.l@m@n@o@p@q@o@r@m@s@'.'.'.'.t@z P                         ",
"                            u@z v@'.'.'.'.'.'.'.'.'.'.'.'.'.'.'. @w@z x@                        ",
"                              r 5+y@'.'.'.'.'.'.'.'.'.'.'.'.'.'.z@z r                           ",
"                              A@z a@3.'.'.'.'.'.'.'.'.'.'.'.'.B@z z C@                          ",
"                                D@z E@F@'.'.'.'.'.'.'.'.'.|@G@z z q                             ",
"                                  ^.z H@>.I@,.'.'.'.3.J@K@L@z z ^.                              ",
"                                    o z z z z M@N@O@P@z z z z K                                 ",
"                                      Q@h@z z z z z z z z ^.R@                                  ",
"                                          S@y %.T@%.y m u@                                      ",
"                                                                                                ",
"                                                                                                "};
