/* XPM */
static const char * const gnome_mime_application_x_audmonkey_project_xpm[] = {
"48 48 470 2",
"  	c None",
". 	c #9D9D9D",
"+ 	c #9E9E9E",
"@ 	c #A0A0A0",
"# 	c #A3A3A3",
"$ 	c #A5A5A5",
"% 	c #A4A4A4",
"& 	c #9F9F9F",
"* 	c #9C9C9C",
"= 	c #999999",
"- 	c #979797",
"; 	c #959595",
"> 	c #929292",
", 	c #909090",
"' 	c #8F8F8F",
") 	c #8C8C8C",
"! 	c #898989",
"~ 	c #888888",
"{ 	c #858585",
"] 	c #838383",
"^ 	c #818181",
"/ 	c #7E7E7E",
"( 	c #7C7C7C",
"_ 	c #7A7A7A",
": 	c #787878",
"< 	c #757575",
"[ 	c #727272",
"} 	c #717171",
"| 	c #6E6E6E",
"1 	c #6C6C6C",
"2 	c #6B6B6B",
"3 	c #676767",
"4 	c #666666",
"5 	c #9A9A9A",
"6 	c #E6E6E6",
"7 	c #FBFBFB",
"8 	c #FAFAFA",
"9 	c #F9F9F9",
"0 	c #F8F8F8",
"a 	c #F7F7F7",
"b 	c #E7E7E7",
"c 	c #626262",
"d 	c #E4E4E4",
"e 	c #E0E0E0",
"f 	c #DEDEDE",
"g 	c #E2E2E2",
"h 	c #E3E3E3",
"i 	c #E5E5E5",
"j 	c #5D5D5D",
"k 	c #DFDFDF",
"l 	c #DBDBDB",
"m 	c #E1E1E1",
"n 	c #DCDCDC",
"o 	c #969696",
"p 	c #DDDDDD",
"q 	c #949494",
"r 	c #E8E8E8",
"s 	c #CECECE",
"t 	c #797979",
"u 	c #5C5C5C",
"v 	c #DCDCDE",
"w 	c #C5C5DC",
"x 	c #0000BE",
"y 	c #0000E7",
"z 	c #0000F1",
"A 	c #0000FF",
"B 	c #0000F2",
"C 	c #0000E8",
"D 	c #0000C8",
"E 	c #C5C5E1",
"F 	c #DCDCE0",
"G 	c #919191",
"H 	c #E9E9E9",
"I 	c #6A6ADC",
"J 	c #0000F3",
"K 	c #0000FB",
"L 	c #0000E9",
"M 	c #0000C6",
"N 	c #000092",
"O 	c #00008C",
"P 	c #0000C0",
"Q 	c #0000E2",
"R 	c #0000F9",
"S 	c #0000F8",
"T 	c #6A6AEB",
"U 	c #9F9FC9",
"V 	c #5B5B5B",
"W 	c #ACACC2",
"X 	c #0000DE",
"Y 	c #0000FD",
"Z 	c #6A6AED",
"` 	c #9F9FD0",
" .	c #9F9FBC",
"..	c #6A6ADE",
"+.	c #0000F5",
"@.	c #0000F4",
"#.	c #ACACDA",
"$.	c #8D8D8D",
"%.	c #0000E0",
"&.	c #6A6AD5",
"*.	c #DDDDE1",
"=.	c #C5C5DF",
"-.	c #0000EB",
";.	c #9F9FD6",
">.	c #5A5A5A",
",.	c #8B8B8B",
"'.	c #EAEAEA",
").	c #DCDCDF",
"!.	c #6A6AE0",
"~.	c #0000FA",
"{.	c #6A6AD4",
"].	c #CECEDC",
"^.	c #3737EB",
"/.	c #0000F0",
"(.	c #ACACCB",
"_.	c #595959",
":.	c #C5C5E2",
"<.	c #6A6ADA",
"[.	c #DDDDE0",
"}.	c #D3CECE",
"|.	c #A68179",
"1.	c #B0847B",
"2.	c #AF847B",
"3.	c #AE847B",
"4.	c #B2847B",
"5.	c #AA8279",
"6.	c #CECEDF",
"7.	c #0000D2",
"8.	c #D3D3D3",
"9.	c #DFDFE2",
"0.	c #C7C7DE",
"a.	c #0000DD",
"b.	c #0000E3",
"c.	c #D3C9C7",
"d.	c #AC776B",
"e.	c #A34100",
"f.	c #AA4400",
"g.	c #A64200",
"h.	c #9A3D00",
"i.	c #C3B0AC",
"j.	c #D4CFCE",
"k.	c #6B6BBE",
"l.	c #6A6AAE",
"m.	c #DDDDE2",
"n.	c #585858",
"o.	c #C6C6C6",
"p.	c #EBEBEB",
"q.	c #6B6BAE",
"r.	c #0100EB",
"s.	c #0000F7",
"t.	c #0000DA",
"u.	c #C1A49F",
"v.	c #A74300",
"w.	c #A05238",
"x.	c #D6CFCE",
"y.	c #C7C7E5",
"z.	c #0000F6",
"A.	c #706BA6",
"B.	c #F6F6F6",
"C.	c #575757",
"D.	c #DCDCE1",
"E.	c #6D6DE5",
"F.	c #6525C0",
"G.	c #3B15ED",
"H.	c #501CCD",
"I.	c #9C3D00",
"J.	c #B0511F",
"K.	c #D07D50",
"L.	c #ED9F6E",
"M.	c #F3A675",
"N.	c #E39566",
"O.	c #C1693C",
"P.	c #AB4708",
"Q.	c #B95D2F",
"R.	c #DB8B5D",
"S.	c #F3A674",
"T.	c #E09062",
"U.	c #BB6133",
"V.	c #9C3E02",
"W.	c #923987",
"X.	c #0000FE",
"Y.	c #86388B",
"Z.	c #B0ADD1",
"`.	c #F5F5F5",
" +	c #565656",
".+	c #A57495",
"++	c #2007F4",
"@+	c #8D5ECA",
"#+	c #5537EF",
"$+	c #6F29B6",
"%+	c #B15221",
"&+	c #EA9C6C",
"*+	c #FFB381",
"=+	c #FFBE96",
"-+	c #FFBC92",
";+	c #FFB380",
">+	c #FBAF7C",
",+	c #CF7D4F",
"'+	c #BD6436",
")+	c #F5A876",
"!+	c #FFBA8F",
"~+	c #FFBE97",
"{+	c #FFB482",
"]+	c #F7AB79",
"^+	c #C36C40",
"/+	c #913981",
"(+	c #0701FB",
"_+	c #B97DA0",
":+	c #772EAB",
"<+	c #F3F3F3",
"[+	c #555555",
"}+	c #7F7F7F",
"|+	c #DCD3D1",
"1+	c #993C6D",
"2+	c #2408F4",
"3+	c #996ACD",
"4+	c #5B3DEF",
"5+	c #310EF2",
"6+	c #9C3D67",
"7+	c #DC8D5F",
"8+	c #FFC7A8",
"9+	c #FFF2EC",
"0+	c #FAF9F9",
"a+	c #FFEBE2",
"b+	c #FFC09A",
"c+	c #FDB17E",
"d+	c #F4A775",
"e+	c #FFBD95",
"f+	c #FFE8DC",
"g+	c #FCFBFA",
"h+	c #F8F8F9",
"i+	c #FFF4EF",
"j+	c #FFCCB0",
"k+	c #F5AA79",
"l+	c #AA4E4C",
"m+	c #4818E7",
"n+	c #C58AA5",
"o+	c #8332A3",
"p+	c #BB877B",
"q+	c #F2F2F2",
"r+	c #545454",
"s+	c #5D21D5",
"t+	c #B55A2E",
"u+	c #FCBE99",
"v+	c #FFF7F4",
"w+	c #D8D8D8",
"x+	c #939393",
"y+	c #CCCCCD",
"z+	c #FFF1EA",
"A+	c #FFBA90",
"B+	c #FFB88A",
"C+	c #FFEDE5",
"D+	c #BABABA",
"E+	c #ACACAC",
"F+	c #FCF7F5",
"G+	c #FFC4A1",
"H+	c #D78655",
"I+	c #6E27C1",
"J+	c #BB877C",
"K+	c #F1F1F1",
"L+	c #535353",
"M+	c #C9A9A2",
"N+	c #7B2EAB",
"O+	c #D28050",
"P+	c #FFD7C1",
"Q+	c #E6E6E7",
"R+	c #A1A1A1",
"S+	c #7D7D7D",
"T+	c #000000",
"U+	c #DDDCDB",
"V+	c #FFC9AB",
"W+	c #FFC5A4",
"X+	c #FBF8F6",
"Y+	c #AEAEAE",
"Z+	c #131313",
"`+	c #AEAEAF",
" @	c #FFDECE",
".@	c #EEA06E",
"+@	c #873799",
"@@	c #F0F0F0",
"#@	c #525252",
"$@	c #873394",
"%@	c #E09161",
"&@	c #FFE0D0",
"*@	c #262626",
"=@	c #AEAFB0",
"-@	c #E8E7E7",
";@	c #B4B4B4",
">@	c #707070",
",@	c #7E7F7F",
"'@	c #FBDFD2",
")@	c #F1A472",
"!@	c #964496",
"~@	c #515151",
"{@	c #767676",
"]@	c #C7C6E0",
"^@	c #1403F6",
"/@	c #8C5BC9",
"(@	c #5536EE",
"_@	c #82309A",
":@	c #DF8F5F",
"<@	c #FFCFB4",
"[@	c #D7D6D6",
"}@	c #0F0F0F",
"|@	c #040404",
"1@	c #CFCBC8",
"2@	c #FFC5A3",
"3@	c #FFC19C",
"4@	c #F7F1EE",
"5@	c #4B4B4B",
"6@	c #9E9D9D",
"7@	c #FED5BF",
"8@	c #F1A471",
"9@	c #873EA3",
"0@	c #B87B9F",
"a@	c #5920BC",
"b@	c #E2E2E3",
"c@	c #4F4F4F",
"d@	c #6D6DE0",
"e@	c #4015CF",
"f@	c #280CF1",
"g@	c #6D27BF",
"h@	c #CF7C4A",
"i@	c #FFB88B",
"j@	c #FDEBE3",
"k@	c #BEBEBE",
"l@	c #3B3B3B",
"m@	c #353535",
"n@	c #B9B9B9",
"o@	c #FCDECF",
"p@	c #FFB584",
"q@	c #FFDCCA",
"r@	c #606060",
"s@	c #181818",
"t@	c #F3E4DD",
"u@	c #EA9C6A",
"v@	c #6526CC",
"w@	c #65288B",
"x@	c #ACACD1",
"y@	c #E1E1E2",
"z@	c #4E4E4E",
"A@	c #737373",
"B@	c #3737E9",
"C@	c #4F1BD4",
"D@	c #AC4E2B",
"E@	c #FBAE7C",
"F@	c #FFB686",
"G@	c #FFDCCB",
"H@	c #FEEEE7",
"I@	c #FDECE4",
"J@	c #FFD5BF",
"K@	c #FFD0B7",
"L@	c #FFEDE4",
"M@	c #FCECE5",
"N@	c #FFB98C",
"O@	c #C8785D",
"P@	c #4715D7",
"Q@	c #0000EF",
"R@	c #6B6BA4",
"S@	c #E0E0E2",
"T@	c #EFEFEF",
"U@	c #CECEDA",
"V@	c #C9C7D4",
"W@	c #B1786C",
"X@	c #D38255",
"Y@	c #FFB27F",
"Z@	c #FFB27E",
"`@	c #FFB483",
" #	c #FFB37F",
".#	c #EB9D6D",
"+#	c #B37D70",
"@#	c #CDCBD8",
"##	c #CACADB",
"$#	c #E0E0E4",
"%#	c #E3E3E4",
"&#	c #6F6F6F",
"*#	c #BDBDBD",
"=#	c #D9D9D9",
"-#	c #B9A39F",
";#	c #AA4B17",
">#	c #E29364",
",#	c #FCB07E",
"'#	c #FEB27F",
")#	c #EDA070",
"!#	c #B4592B",
"~#	c #BDA7A3",
"{#	c #E4E4E5",
"]#	c #6D6D6D",
"^#	c #EEEEEE",
"/#	c #C6B1AD",
"(#	c #AA470E",
"_#	c #C77245",
":#	c #E69768",
"<#	c #B25221",
"[#	c #A14000",
"}#	c #E5E5E6",
"|#	c #EFEFF0",
"1#	c #CEC7C6",
"2#	c #9F3F00",
"3#	c #C36D40",
"4#	c #FDB07E",
"5#	c #FCB07D",
"6#	c #B35422",
"7#	c #9B3D00",
"8#	c #E2E2E4",
"9#	c #696969",
"0#	c #E0DFDF",
"a#	c #B1796B",
"b#	c #D88759",
"c#	c #FFB480",
"d#	c #CA7649",
"e#	c #9D3D00",
"f#	c #ECECEC",
"g#	c #B4877D",
"h#	c #D78659",
"i#	c #FCB17E",
"j#	c #FBB07E",
"k#	c #FDB27F",
"l#	c #F7AD7C",
"m#	c #646464",
"n#	c #A3837D",
"o#	c #FEB380",
"p#	c #B25321",
"q#	c #893500",
"r#	c #636363",
"s#	c #9F4513",
"t#	c #E69868",
"u#	c #D38154",
"v#	c #A54200",
"w#	c #D9CFCD",
"x#	c #EBEBEC",
"y#	c #616161",
"z#	c #C8B5B2",
"A#	c #AF5120",
"B#	c #DE8F60",
"C#	c #FDB17F",
"D#	c #AD4A11",
"E#	c #B07B6F",
"F#	c #E8E6E6",
"G#	c #EDEDED",
"H#	c #5E5E5E",
"I#	c #C7ABA6",
"J#	c #A84300",
"K#	c #BF673A",
"L#	c #E09162",
"M#	c #EEA070",
"N#	c #F0A373",
"O#	c #EDA06F",
"P#	c #DA8A5C",
"Q#	c #B6592A",
"R#	c #A94400",
"S#	c #B37C6F",
"T#	c #EEEEEF",
"U#	c #CFBAB6",
"V#	c #A94200",
"W#	c #AB4606",
"X#	c #AE4C16",
"Y#	c #A44100",
"Z#	c #AA7B70",
"`#	c #ECEAEA",
" $	c #F4F4F4",
".$	c #B48B83",
"+$	c #B58C83",
"@$	c #B38B83",
"#$	c #B68B83",
"$$	c #AB8881",
"%$	c #E0DCDB",
"&$	c #F2F2F3",
"*$	c #505050",
"=$	c #656565",
"                                                                                                ",
"                                                                                                ",
"                                                                                                ",
"              . + @ # $ % # & . * = - ; > , ' ) ! ~ { ] ^ / ( _ : < [ } | 1 2 3 4               ",
"            5 6 7 7 7 7 7 7 7 7 7 7 8 8 8 8 8 8 9 9 9 9 9 0 0 0 0 0 0 a a a a a b c             ",
"            5 a d e e f b g g g h h h d d d i i i i i 6 6 6 6 6 6 6 6 6 6 6 i i a j             ",
"            = a h f k l 6 e m m m g g g h h h h d d d d d d i i i i i d d d d 6 a j             ",
"            = a h k k n 6 m m g g g h h h d d d d d d d d d d d d d d d i i i b a j             ",
"            o a d k e n b m g g h h h d d d i i i d d i i i i i i i i i i i i b a j             ",
"            ; 0 d e e p b g g h h d h h h h h d d h h h h h h h h h d d d d 6 b a j             ",
"            q 0 i e m p r g h h d h h h g g g s t t s h h h h h h h h h d d b r a u             ",
"            > 0 i m m f r h h d d h h v w x y z A A B C D E F g g g h h h h b r a u             ",
"            G 0 6 m g f H h d h h g g I J K L M N O P Q R S T U g g h g h h b H a V             ",
"            ' 0 6 g g k H d d g g W X Y Z ` g g g g g g  ...+.@.#.g g h h h 6 H a V             ",
"            $.0 b g h k H i d g g %.K &.*.g g g g g g g g v =.-.+.;.g g g g i H 0 >.            ",
"            ,.0 b h h e '.i i ).!.~.{.g g g g g g g g g g g g ].^./.(.g g h d H 0 _.            ",
"            ! a r h d e '.6 i :.S <.[.g g }.|.1.2.3.4.5.}.g g g 6.z 7.g g h h H 0 _.            ",
"            ~ a r 8.f m '.9.0.a.b.g g c.d.e.f.f.f.f.f.f.g.h.i.j.g k.z l.m.h g H 0 n.            ",
"            { a r o.g m p.q.r.s.t.g u.g.f.f.f.f.f.f.f.f.f.f.v.w.x.y.z.+.A.h g b B.C.            ",
"            ] a r h p.D.E.F.G.A H.I.J.K.L.M.N.O.P.f.Q.R.S.M.T.U.V.W.X.A Y.-.Z.i `. +            ",
"            ^ a r i 6 .+++@+#+A $+%+&+*+=+-+;+>+,+'+)+;+!+~+{+]+^+/+(+A _+A :+d <+[+            ",
"            }+a H i |+1+2+3+4+5+6+7+8+9+8 0+a+b+c+d+e+f+g+h+i+j+k+l+m+A n+A o+p+q+r+            ",
"            / B.H 6 p+1+2+3+4+s+t+u+v+w+x+}+y+z+A+B+C+r D+}+E+F+G+H+I+A n+A o+J+K+L+            ",
"            ( B.H 6 M+1+2+3+4+N+O+P+Q+R+S+T+T+U+V+W+X+= Y+Z+T+`+ @.@+@A n+A o+J+@@#@            ",
"            _ B.'.6 b 1+2+3+4+$@%@&@o.8.*@T+T+=@j+V+-@;@>@T+T+,@'@)@!@A n+A o+J+@@~@            ",
"            {@B.'.b b ]@^@/@(@_@:@<@[@}@T+T+|@1@2@3@4@5@T+T+T+6@7@8@9@A 0@A a@b@@@c@            ",
"            < B.'.b r m.d@e@f@g@h@i@j@k@l@m@n@o@p@{+q@l r@s@x+t@!+u@v@A w@b.x@y@@@z@            ",
"            A@B.p.b r d r 6.B@C@D@E@F@G@H@I@J@;+;+;+;+K@L@M@&@N@;+O@P@Q@R@d h S@T@z@            ",
"            } B.'.b r d H g U@V@W@X@Y@Z@`@*+Y@;+;+;+;+ #;+p@Z@;+.#+#@###$#i %#S@T@z@            ",
"            &#B.'.*#=#d H g g g -#;#>#,#;+;+;+;+;+;+;+;+;+;+'#)#!#~#r b b i {#9.T@z@            ",
"            ]#B.'.=#^#d H g g g h /#(#_#]+;+;+;+;+;+;+;+;+;+:#<#[#b b b b b }#S@|#z@            ",
"            2 B.'.r H i H g g g h 1#2#3#4#;+;+;+;+;+;+;+;+;+5#6#7#r r r r r Q+8#@@z@            ",
"            9#B.'.r H i H g h h d 0#a#b#c#;+;+;+;+;+;+;+;+;+;+d#e#H H H H H r 6 @@z@            ",
"            4 `.p.r H i f#b h d d d g#h#c#;+i#j#k#k#i#j#l#;+;+d#I.H H H H H H H q+z@            ",
"            m#`.p.r H i T@H d i d i n#^+4#;+i#j#k#k#i#j#o#;+5#p#q#'.'.p.p.p.'.f#<+z@            ",
"            r#`.p.r H i T@H r 6 b b r s#t#;+;+;+;+;+;+;+;+'#u#v#w#p.p.p.f#x#p.T@`.z@            ",
"            y#`.p.r H i T@f#p.r r r H z#A#B#C#;+;+;+;+;+5#u#D#E#F#f#f#G#G#G#G#K+`.z@            ",
"            H#`.p.r H i T@f#f#p.'.p.p.p.I#J#K#L#M#N#O#P#Q#R#S#^#^#^#^#^#T#T#^#q+a z@            ",
"            u `.p.r H i T@p.f#f#f#G#G#^#^#U#e.V#W#X#f.V#Y#Z#`#@@@@T@T@@@@@K+K+`.a z@            ",
"            >. $p.r H i T@p.f#G#^#^#T@@@K+K+K+.$+$@$#$$$%$K+q+q+q+q+q+q+<+&$<+`.a z@            ",
"            _. $p.r H i T@p.f#G#^#^#T@@@K+K+q+<+<+<+<+<+ $ $`.`.`.`.`. $`.`. $`.a z@            ",
"             + $'.r H i ^#p.f#G#G#^#T@@@@@K+q+q+<+ $ $`.B.B.a a a a a B.B.`.`.`.a z@            ",
"            L+ $'.r H i ^#p.f#G#G#^#T@T@@@K+K+q+<+<+ $`.`.B.B.B.B.B.B.B.`.`. $`.a z@            ",
"            r+G#0 a 0 B.0 0 0 0 0 0 0 0 a a a a a a a a a a a a a a a a a a a a  $*$            ",
"               +4 4 4 4 =$=$=$=$=$=$=$=$m#m#m#m#m#=$=$=$=$4 4 4 4 4 4 4 3 3 3 3 C. +            ",
"                                                                                                ",
"                                                                                                ",
"                                                                                                "};
