/* XPM */
static char * audmonkey16_xpm[] = {
"16 16 106 2",
"  	c None",
". 	c #0000DA",
"+ 	c #0000DB",
"@ 	c #0000E4",
"# 	c #0000E5",
"$ 	c #0000E3",
"% 	c #0000E2",
"& 	c #0000E7",
"* 	c #0000DE",
"= 	c #0C06AF",
"- 	c #0703E0",
"; 	c #653740",
"> 	c #743B18",
", 	c #140BB9",
"' 	c #0703C6",
") 	c #0000EB",
"! 	c #26148E",
"~ 	c #0000FF",
"{ 	c #C78A84",
"] 	c #965A31",
"^ 	c #8F532B",
"/ 	c #5C2805",
"( 	c #582402",
"_ 	c #8B4F28",
": 	c #955830",
"< 	c #E09969",
"[ 	c #2519DD",
"} 	c #160DCF",
"| 	c #0401E3",
"1 	c #0000ED",
"2 	c #301B91",
"3 	c #0301F6",
"4 	c #C1825B",
"5 	c #FFD5B9",
"6 	c #FFD3B5",
"7 	c #DF996B",
"8 	c #CB885B",
"9 	c #FFD2B3",
"0 	c #FFD6BB",
"a 	c #D49367",
"b 	c #2F1CB2",
"c 	c #1A11D3",
"d 	c #0502E0",
"e 	c #0F08AB",
"f 	c #402079",
"g 	c #F3D6C2",
"h 	c #494949",
"i 	c #5E5E5E",
"j 	c #F2CEB6",
"k 	c #FED5B9",
"l 	c #555555",
"m 	c #5B5B5B",
"n 	c #DFC7B8",
"o 	c #78453A",
"p 	c #0C06D4",
"q 	c #0000EC",
"r 	c #0202C9",
"s 	c #763F2B",
"t 	c #D3C1B4",
"u 	c #000000",
"v 	c #1C1C1C",
"w 	c #CEB6A6",
"x 	c #F3D4BF",
"y 	c #040404",
"z 	c #A99C94",
"A 	c #975A32",
"B 	c #1A0AA5",
"C 	c #1207A0",
"D 	c #622D0A",
"E 	c #FCBE94",
"F 	c #A29790",
"G 	c #A0938B",
"H 	c #FFBD90",
"I 	c #FEBB8D",
"J 	c #B6A79D",
"K 	c #918882",
"L 	c #FABE97",
"M 	c #79411B",
"N 	c #2C116A",
"O 	c #552200",
"P 	c #A6673D",
"Q 	c #FFB380",
"R 	c #BE7B4F",
"S 	c #562200",
"T 	c #F0A574",
"U 	c #884E26",
"V 	c #562100",
"W 	c #6E3813",
"X 	c #FBB382",
"Y 	c #FFCBA8",
"Z 	c #FFD3B6",
"` 	c #FFDBC3",
" .	c #FFE3D1",
"..	c #F0BF9E",
"+.	c #B07045",
"@.	c #592603",
"#.	c #ECA372",
"$.	c #EFCAB0",
"%.	c #F0EAE7",
"&.	c #F3E8E1",
"*.	c #F0C2A3",
"=.	c #8A5029",
"-.	c #8C502A",
";.	c #E19A6A",
">.	c #F6AC79",
",.	c #B37246",
"              . +               ",
"          @ #     $ %           ",
"        &             &         ",
"      +                 *       ",
"    = - ;             > , '     ",
"  ) ! ~ { ] ^ / ( _ : < [ } |   ",
"  1 2 3 4 5 6 7 8 9 0 a b c d   ",
"  1 e f g h i j k l m n o p )   ",
"  q r s t u v w x y v z A B )   ",
"    C D E F G H I J K L M N     ",
"      O P Q Q Q Q Q Q R O S     ",
"      O ( T Q Q Q Q Q U O       ",
"      V W X Y Z `  ...+.O       ",
"        @.#.$.%.&.*.Q =.        ",
"          -.;.Q Q >.,.          ",
"                                "};
