/* XPM */
static const char * const audmonky16_xpm[] = {
"16 16 91 1",
" 	c None",
".	c #0000E7",
"+	c #0000EB",
"@	c #0000ED",
"#	c #0000EC",
"$	c #0000E9",
"%	c #0000F5",
"&	c #0000F8",
"*	c #0000E5",
"=	c #0000F7",
"-	c #0000E1",
";	c #AA4400",
">	c #A94300",
",	c #A64200",
"'	c #0000E6",
")	c #0000CE",
"!	c #3610EB",
"~	c #643ACE",
"{	c #4818EA",
"]	c #C46E42",
"^	c #F1A473",
"/	c #F7AB79",
"(	c #CE7C4F",
"_	c #C46E41",
":	c #F7AA79",
"<	c #6525D3",
"[	c #834ED0",
"}	c #2F0DEA",
"|	c #702ACC",
"1	c #7B54D2",
"2	c #8234AA",
"3	c #F8CAB3",
"4	c #E0DDDC",
"5	c #DDD8D6",
"6	c #FFC9AA",
"7	c #FCC3A3",
"8	c #E9E3E0",
"9	c #D2CECD",
"0	c #FCD0BA",
"a	c #9A509E",
"b	c #A170D7",
"c	c #501CDF",
"d	c #6C28D0",
"e	c #B16387",
"f	c #EDDDD5",
"g	c #8F8F8F",
"h	c #000000",
"i	c #ECCFC1",
"j	c #FBE0D4",
"k	c #A1A1A1",
"l	c #D3C2BB",
"m	c #C57D91",
"n	c #0000FC",
"o	c #5936D4",
"p	c #AE6287",
"q	c #F6D4C3",
"r	c #616161",
"s	c #F6CDB8",
"t	c #FFD5BF",
"u	c #818181",
"v	c #3D3D3D",
"w	c #E9C9B8",
"x	c #BF7898",
"y	c #7D4EDA",
"z	c #0000F2",
"A	c #92398C",
"B	c #F4A776",
"C	c #FFCFB6",
"D	c #FFCBAD",
"E	c #FFB380",
"F	c #FCB07E",
"G	c #A45794",
"H	c #B85F33",
"I	c #F9AD7A",
"J	c #C16E42",
"K	c #A54200",
"L	c #EB9E6E",
"M	c #AB562B",
"N	c #EB9D6D",
"O	c #FDB27F",
"P	c #FDB17F",
"Q	c #F9AF7D",
"R	c #B75D2F",
"S	c #BF6A3E",
"T	c #F8AB79",
"U	c #D58456",
"V	c #A34100",
"W	c #AC4D1A",
"X	c #CA774A",
"Y	c #D28053",
"Z	c #B45A2D",
"                ",
"     .+@#$%     ",
"    &+    *=    ",
"   +#       $   ",
"   - ;>;;;, ')  ",
" !~{]^/(_::(<[} ",
" |1234567890abc ",
" d1efghijkhlmbc ",
" nopqrrstuvwxyz ",
"   ABCDEE6CFG   ",
"    H^EEEEIJ    ",
"    KLEEEEEM    ",
"     NOPPQER    ",
"     STEEEUV    ",
"      WXYZ,     ",
"                "};
